M48
; DRILL file {KiCad (5.1.9)-1} date 05/08/21 16:45:11
; FORMAT={-:-/ absolute / inch / decimal}
; #@! TF.CreationDate,2021-05-08T16:45:11+02:00
; #@! TF.GenerationSoftware,Kicad,Pcbnew,(5.1.9)-1
; #@! TF.FileFunction,Plated,1,2,PTH
FMAT,2
INCH
T1C0.0157
T2C0.0197
T3C0.0382
T4C0.0394
T5C0.0933
T6C0.1260
%
G90
G05
T1
X4.7236Y-4.6587
X4.724Y-4.3059
X4.7244Y-4.3594
X4.7248Y-4.5083
X4.7252Y-4.6083
X4.7256Y-4.4579
X4.7256Y-4.5579
X4.726Y-4.4083
X5.1228Y-4.7768
X5.17Y-4.34
X5.5298Y-4.5402
X5.53Y-4.59
X5.64Y-4.26
X5.7Y-4.49
T3
X4.8081Y-4.0769
X4.8081Y-4.1754
X4.8888Y-4.0769
X4.9912Y-4.0769
X5.0719Y-4.0769
X5.0719Y-4.1754
T4
X4.9465Y-4.8524
X5.001Y-4.9642
X5.0555Y-4.8524
X5.11Y-4.9642
X5.1646Y-4.8524
X5.2191Y-4.9642
X5.2736Y-4.8524
X5.3281Y-4.9642
X5.3646Y-4.0654
X5.3646Y-4.1654
X5.3827Y-4.8524
X5.4701Y-4.0661
X5.4701Y-4.1661
X5.5701Y-4.0661
X5.5701Y-4.1661
X5.6701Y-4.0661
X5.6701Y-4.1661
T5
X4.6739Y-3.9588
X4.94Y-3.9269
X5.2061Y-3.9588
T6
X4.6724Y-4.8642
X5.6567Y-4.8642
T2
G00X5.4401Y-3.7995
M15
G01X5.4401Y-3.8192
M16
G05
G00X5.6999Y-3.7995
M15
G01X5.6999Y-3.8192
M16
G05
T0
M30
