%TF.GenerationSoftware,KiCad,Pcbnew,(5.1.9)-1*%
%TF.CreationDate,2021-04-11T16:46:44+02:00*%
%TF.ProjectId,UPL_Mouse,55504c5f-4d6f-4757-9365-2e6b69636164,rev?*%
%TF.SameCoordinates,Original*%
%TF.FileFunction,Soldermask,Top*%
%TF.FilePolarity,Negative*%
%FSLAX46Y46*%
G04 Gerber Fmt 4.6, Leading zero omitted, Abs format (unit mm)*
G04 Created by KiCad (PCBNEW (5.1.9)-1) date 2021-04-11 16:46:44*
%MOMM*%
%LPD*%
G01*
G04 APERTURE LIST*
%ADD10O,1.700000X1.700000*%
%ADD11R,1.700000X1.700000*%
%ADD12C,1.470000*%
%ADD13C,3.570000*%
%ADD14R,1.800000X2.600000*%
%ADD15R,0.406400X1.346200*%
%ADD16R,1.600200X1.397000*%
%ADD17O,0.914400X1.600200*%
%ADD18C,4.000000*%
%ADD19C,1.600000*%
%ADD20R,1.600000X1.600000*%
G04 APERTURE END LIST*
D10*
%TO.C,J4*%
X144220000Y-115340000D03*
X141680000Y-115340000D03*
X144220000Y-112800000D03*
X141680000Y-112800000D03*
X144220000Y-110260000D03*
D11*
X141680000Y-110260000D03*
%TD*%
D12*
%TO.C,J1*%
X124700000Y-105910000D03*
X127300000Y-105910000D03*
X122650000Y-105910000D03*
X129350000Y-105910000D03*
X122650000Y-108410000D03*
X129350000Y-108410000D03*
D13*
X132760000Y-102910000D03*
X126000000Y-102100000D03*
X119240000Y-102910000D03*
%TD*%
D14*
%TO.C,C4*%
X134550000Y-113340000D03*
X134550000Y-117840000D03*
%TD*%
%TO.C,C3*%
X123520000Y-113320000D03*
X123520000Y-117820000D03*
%TD*%
%TO.C,C2*%
X129050000Y-113320000D03*
X129050000Y-117820000D03*
%TD*%
%TO.C,C1*%
X118010000Y-113320000D03*
X118010000Y-117820000D03*
%TD*%
D15*
%TO.C,J3*%
X142770000Y-102768699D03*
X142119999Y-102768699D03*
X141470000Y-102768699D03*
X140820001Y-102768699D03*
X140170000Y-102768699D03*
D16*
X144670001Y-102543699D03*
X138269999Y-102543699D03*
D17*
X144769998Y-100093698D03*
X138170002Y-100093698D03*
%TD*%
D18*
%TO.C,J2*%
X143680000Y-123550000D03*
X118680000Y-123550000D03*
D19*
X127025000Y-126090000D03*
X129795000Y-126090000D03*
X132565000Y-126090000D03*
X135335000Y-126090000D03*
X125640000Y-123250000D03*
X128410000Y-123250000D03*
X131180000Y-123250000D03*
X133950000Y-123250000D03*
D20*
X136720000Y-123250000D03*
%TD*%
M02*
