%TF.GenerationSoftware,KiCad,Pcbnew,(5.1.9)-1*%
%TF.CreationDate,2021-05-08T16:45:08+02:00*%
%TF.ProjectId,UPL_Mouse,55504c5f-4d6f-4757-9365-2e6b69636164,rev?*%
%TF.SameCoordinates,Original*%
%TF.FileFunction,Paste,Bot*%
%TF.FilePolarity,Positive*%
%FSLAX46Y46*%
G04 Gerber Fmt 4.6, Leading zero omitted, Abs format (unit mm)*
G04 Created by KiCad (PCBNEW (5.1.9)-1) date 2021-05-08 16:45:08*
%MOMM*%
%LPD*%
G01*
G04 APERTURE LIST*
%ADD10R,1.193800X1.803400*%
%ADD11R,2.184400X0.558800*%
G04 APERTURE END LIST*
D10*
%TO.C,Y1*%
X144773800Y-111718000D03*
X144773800Y-115782000D03*
X142386200Y-115782000D03*
X142386200Y-111718000D03*
%TD*%
%TO.C,U2*%
G36*
G01*
X134560000Y-110120000D02*
X134560000Y-110420000D01*
G75*
G02*
X134410000Y-110570000I-150000J0D01*
G01*
X132760000Y-110570000D01*
G75*
G02*
X132610000Y-110420000I0J150000D01*
G01*
X132610000Y-110120000D01*
G75*
G02*
X132760000Y-109970000I150000J0D01*
G01*
X134410000Y-109970000D01*
G75*
G02*
X134560000Y-110120000I0J-150000D01*
G01*
G37*
G36*
G01*
X134560000Y-111390000D02*
X134560000Y-111690000D01*
G75*
G02*
X134410000Y-111840000I-150000J0D01*
G01*
X132760000Y-111840000D01*
G75*
G02*
X132610000Y-111690000I0J150000D01*
G01*
X132610000Y-111390000D01*
G75*
G02*
X132760000Y-111240000I150000J0D01*
G01*
X134410000Y-111240000D01*
G75*
G02*
X134560000Y-111390000I0J-150000D01*
G01*
G37*
G36*
G01*
X134560000Y-112660000D02*
X134560000Y-112960000D01*
G75*
G02*
X134410000Y-113110000I-150000J0D01*
G01*
X132760000Y-113110000D01*
G75*
G02*
X132610000Y-112960000I0J150000D01*
G01*
X132610000Y-112660000D01*
G75*
G02*
X132760000Y-112510000I150000J0D01*
G01*
X134410000Y-112510000D01*
G75*
G02*
X134560000Y-112660000I0J-150000D01*
G01*
G37*
G36*
G01*
X134560000Y-113930000D02*
X134560000Y-114230000D01*
G75*
G02*
X134410000Y-114380000I-150000J0D01*
G01*
X132760000Y-114380000D01*
G75*
G02*
X132610000Y-114230000I0J150000D01*
G01*
X132610000Y-113930000D01*
G75*
G02*
X132760000Y-113780000I150000J0D01*
G01*
X134410000Y-113780000D01*
G75*
G02*
X134560000Y-113930000I0J-150000D01*
G01*
G37*
G36*
G01*
X134560000Y-115200000D02*
X134560000Y-115500000D01*
G75*
G02*
X134410000Y-115650000I-150000J0D01*
G01*
X132760000Y-115650000D01*
G75*
G02*
X132610000Y-115500000I0J150000D01*
G01*
X132610000Y-115200000D01*
G75*
G02*
X132760000Y-115050000I150000J0D01*
G01*
X134410000Y-115050000D01*
G75*
G02*
X134560000Y-115200000I0J-150000D01*
G01*
G37*
G36*
G01*
X134560000Y-116470000D02*
X134560000Y-116770000D01*
G75*
G02*
X134410000Y-116920000I-150000J0D01*
G01*
X132760000Y-116920000D01*
G75*
G02*
X132610000Y-116770000I0J150000D01*
G01*
X132610000Y-116470000D01*
G75*
G02*
X132760000Y-116320000I150000J0D01*
G01*
X134410000Y-116320000D01*
G75*
G02*
X134560000Y-116470000I0J-150000D01*
G01*
G37*
G36*
G01*
X134560000Y-117740000D02*
X134560000Y-118040000D01*
G75*
G02*
X134410000Y-118190000I-150000J0D01*
G01*
X132760000Y-118190000D01*
G75*
G02*
X132610000Y-118040000I0J150000D01*
G01*
X132610000Y-117740000D01*
G75*
G02*
X132760000Y-117590000I150000J0D01*
G01*
X134410000Y-117590000D01*
G75*
G02*
X134560000Y-117740000I0J-150000D01*
G01*
G37*
G36*
G01*
X139510000Y-117740000D02*
X139510000Y-118040000D01*
G75*
G02*
X139360000Y-118190000I-150000J0D01*
G01*
X137710000Y-118190000D01*
G75*
G02*
X137560000Y-118040000I0J150000D01*
G01*
X137560000Y-117740000D01*
G75*
G02*
X137710000Y-117590000I150000J0D01*
G01*
X139360000Y-117590000D01*
G75*
G02*
X139510000Y-117740000I0J-150000D01*
G01*
G37*
G36*
G01*
X139510000Y-116470000D02*
X139510000Y-116770000D01*
G75*
G02*
X139360000Y-116920000I-150000J0D01*
G01*
X137710000Y-116920000D01*
G75*
G02*
X137560000Y-116770000I0J150000D01*
G01*
X137560000Y-116470000D01*
G75*
G02*
X137710000Y-116320000I150000J0D01*
G01*
X139360000Y-116320000D01*
G75*
G02*
X139510000Y-116470000I0J-150000D01*
G01*
G37*
G36*
G01*
X139510000Y-115200000D02*
X139510000Y-115500000D01*
G75*
G02*
X139360000Y-115650000I-150000J0D01*
G01*
X137710000Y-115650000D01*
G75*
G02*
X137560000Y-115500000I0J150000D01*
G01*
X137560000Y-115200000D01*
G75*
G02*
X137710000Y-115050000I150000J0D01*
G01*
X139360000Y-115050000D01*
G75*
G02*
X139510000Y-115200000I0J-150000D01*
G01*
G37*
G36*
G01*
X139510000Y-113930000D02*
X139510000Y-114230000D01*
G75*
G02*
X139360000Y-114380000I-150000J0D01*
G01*
X137710000Y-114380000D01*
G75*
G02*
X137560000Y-114230000I0J150000D01*
G01*
X137560000Y-113930000D01*
G75*
G02*
X137710000Y-113780000I150000J0D01*
G01*
X139360000Y-113780000D01*
G75*
G02*
X139510000Y-113930000I0J-150000D01*
G01*
G37*
G36*
G01*
X139510000Y-112660000D02*
X139510000Y-112960000D01*
G75*
G02*
X139360000Y-113110000I-150000J0D01*
G01*
X137710000Y-113110000D01*
G75*
G02*
X137560000Y-112960000I0J150000D01*
G01*
X137560000Y-112660000D01*
G75*
G02*
X137710000Y-112510000I150000J0D01*
G01*
X139360000Y-112510000D01*
G75*
G02*
X139510000Y-112660000I0J-150000D01*
G01*
G37*
G36*
G01*
X139510000Y-111390000D02*
X139510000Y-111690000D01*
G75*
G02*
X139360000Y-111840000I-150000J0D01*
G01*
X137710000Y-111840000D01*
G75*
G02*
X137560000Y-111690000I0J150000D01*
G01*
X137560000Y-111390000D01*
G75*
G02*
X137710000Y-111240000I150000J0D01*
G01*
X139360000Y-111240000D01*
G75*
G02*
X139510000Y-111390000I0J-150000D01*
G01*
G37*
G36*
G01*
X139510000Y-110120000D02*
X139510000Y-110420000D01*
G75*
G02*
X139360000Y-110570000I-150000J0D01*
G01*
X137710000Y-110570000D01*
G75*
G02*
X137560000Y-110420000I0J150000D01*
G01*
X137560000Y-110120000D01*
G75*
G02*
X137710000Y-109970000I150000J0D01*
G01*
X139360000Y-109970000D01*
G75*
G02*
X139510000Y-110120000I0J-150000D01*
G01*
G37*
%TD*%
D11*
%TO.C,U1*%
X122357800Y-118325000D03*
X122357800Y-117055000D03*
X122357800Y-115785000D03*
X122357800Y-114515000D03*
X122357800Y-113245000D03*
X122357800Y-111975000D03*
X122357800Y-110705000D03*
X122357800Y-109435000D03*
X127082200Y-109435000D03*
X127082200Y-110705000D03*
X127082200Y-111975000D03*
X127082200Y-113245000D03*
X127082200Y-114515000D03*
X127082200Y-115785000D03*
X127082200Y-117055000D03*
X127082200Y-118325000D03*
%TD*%
%TO.C,C6*%
G36*
G01*
X143855000Y-118180000D02*
X143855000Y-117680000D01*
G75*
G02*
X144080000Y-117455000I225000J0D01*
G01*
X144530000Y-117455000D01*
G75*
G02*
X144755000Y-117680000I0J-225000D01*
G01*
X144755000Y-118180000D01*
G75*
G02*
X144530000Y-118405000I-225000J0D01*
G01*
X144080000Y-118405000D01*
G75*
G02*
X143855000Y-118180000I0J225000D01*
G01*
G37*
G36*
G01*
X142305000Y-118180000D02*
X142305000Y-117680000D01*
G75*
G02*
X142530000Y-117455000I225000J0D01*
G01*
X142980000Y-117455000D01*
G75*
G02*
X143205000Y-117680000I0J-225000D01*
G01*
X143205000Y-118180000D01*
G75*
G02*
X142980000Y-118405000I-225000J0D01*
G01*
X142530000Y-118405000D01*
G75*
G02*
X142305000Y-118180000I0J225000D01*
G01*
G37*
%TD*%
%TO.C,C5*%
G36*
G01*
X143315000Y-109400000D02*
X143315000Y-109900000D01*
G75*
G02*
X143090000Y-110125000I-225000J0D01*
G01*
X142640000Y-110125000D01*
G75*
G02*
X142415000Y-109900000I0J225000D01*
G01*
X142415000Y-109400000D01*
G75*
G02*
X142640000Y-109175000I225000J0D01*
G01*
X143090000Y-109175000D01*
G75*
G02*
X143315000Y-109400000I0J-225000D01*
G01*
G37*
G36*
G01*
X144865000Y-109400000D02*
X144865000Y-109900000D01*
G75*
G02*
X144640000Y-110125000I-225000J0D01*
G01*
X144190000Y-110125000D01*
G75*
G02*
X143965000Y-109900000I0J225000D01*
G01*
X143965000Y-109400000D01*
G75*
G02*
X144190000Y-109175000I225000J0D01*
G01*
X144640000Y-109175000D01*
G75*
G02*
X144865000Y-109400000I0J-225000D01*
G01*
G37*
%TD*%
M02*
