%TF.GenerationSoftware,KiCad,Pcbnew,(5.1.9)-1*%
%TF.CreationDate,2021-05-07T20:49:00+02:00*%
%TF.ProjectId,UPL_Mouse,55504c5f-4d6f-4757-9365-2e6b69636164,rev?*%
%TF.SameCoordinates,Original*%
%TF.FileFunction,Legend,Top*%
%TF.FilePolarity,Positive*%
%FSLAX46Y46*%
G04 Gerber Fmt 4.6, Leading zero omitted, Abs format (unit mm)*
G04 Created by KiCad (PCBNEW (5.1.9)-1) date 2021-05-07 20:49:00*
%MOMM*%
%LPD*%
G01*
G04 APERTURE LIST*
%ADD10C,0.125000*%
%ADD11C,0.250000*%
%ADD12C,0.120000*%
%ADD13C,0.100000*%
%ADD14C,0.200000*%
%ADD15C,0.152400*%
%ADD16C,0.150000*%
%ADD17C,0.254000*%
G04 APERTURE END LIST*
D10*
X133762761Y-106370380D02*
X133429428Y-105894190D01*
X133191333Y-106370380D02*
X133191333Y-105370380D01*
X133572285Y-105370380D01*
X133667523Y-105418000D01*
X133715142Y-105465619D01*
X133762761Y-105560857D01*
X133762761Y-105703714D01*
X133715142Y-105798952D01*
X133667523Y-105846571D01*
X133572285Y-105894190D01*
X133191333Y-105894190D01*
X134096095Y-106370380D02*
X134619904Y-105703714D01*
X134096095Y-105703714D02*
X134619904Y-106370380D01*
X133167523Y-102830380D02*
X133738952Y-102830380D01*
X133453238Y-103830380D02*
X133453238Y-102830380D01*
X133977047Y-103830380D02*
X134500857Y-103163714D01*
X133977047Y-103163714D02*
X134500857Y-103830380D01*
X143256095Y-100846000D02*
X143160857Y-100798380D01*
X143018000Y-100798380D01*
X142875142Y-100846000D01*
X142779904Y-100941238D01*
X142732285Y-101036476D01*
X142684666Y-101226952D01*
X142684666Y-101369809D01*
X142732285Y-101560285D01*
X142779904Y-101655523D01*
X142875142Y-101750761D01*
X143018000Y-101798380D01*
X143113238Y-101798380D01*
X143256095Y-101750761D01*
X143303714Y-101703142D01*
X143303714Y-101369809D01*
X143113238Y-101369809D01*
X143732285Y-101798380D02*
X143732285Y-100798380D01*
X144303714Y-101798380D01*
X144303714Y-100798380D01*
X144779904Y-101798380D02*
X144779904Y-100798380D01*
X145018000Y-100798380D01*
X145160857Y-100846000D01*
X145256095Y-100941238D01*
X145303714Y-101036476D01*
X145351333Y-101226952D01*
X145351333Y-101369809D01*
X145303714Y-101560285D01*
X145256095Y-101655523D01*
X145160857Y-101750761D01*
X145018000Y-101798380D01*
X144779904Y-101798380D01*
X137398285Y-101417428D02*
X138160190Y-101417428D01*
X137779238Y-101798380D02*
X137779238Y-101036476D01*
X139112571Y-100798380D02*
X138636380Y-100798380D01*
X138588761Y-101274571D01*
X138636380Y-101226952D01*
X138731619Y-101179333D01*
X138969714Y-101179333D01*
X139064952Y-101226952D01*
X139112571Y-101274571D01*
X139160190Y-101369809D01*
X139160190Y-101607904D01*
X139112571Y-101703142D01*
X139064952Y-101750761D01*
X138969714Y-101798380D01*
X138731619Y-101798380D01*
X138636380Y-101750761D01*
X138588761Y-101703142D01*
X139445904Y-100798380D02*
X139779238Y-101798380D01*
X140112571Y-100798380D01*
D11*
X137639928Y-111095571D02*
X137782785Y-111143190D01*
X137830404Y-111190809D01*
X137878023Y-111286047D01*
X137878023Y-111428904D01*
X137830404Y-111524142D01*
X137782785Y-111571761D01*
X137687547Y-111619380D01*
X137306595Y-111619380D01*
X137306595Y-110619380D01*
X137639928Y-110619380D01*
X137735166Y-110667000D01*
X137782785Y-110714619D01*
X137830404Y-110809857D01*
X137830404Y-110905095D01*
X137782785Y-111000333D01*
X137735166Y-111047952D01*
X137639928Y-111095571D01*
X137306595Y-111095571D01*
X138163738Y-110619380D02*
X138497071Y-111619380D01*
X138830404Y-110619380D01*
X139163738Y-111619380D02*
X139163738Y-110619380D01*
X139735166Y-111619380D02*
X139306595Y-111047952D01*
X139735166Y-110619380D02*
X139163738Y-111190809D01*
X140116119Y-111571761D02*
X140258976Y-111619380D01*
X140497071Y-111619380D01*
X140592309Y-111571761D01*
X140639928Y-111524142D01*
X140687547Y-111428904D01*
X140687547Y-111333666D01*
X140639928Y-111238428D01*
X140592309Y-111190809D01*
X140497071Y-111143190D01*
X140306595Y-111095571D01*
X140211357Y-111047952D01*
X140163738Y-111000333D01*
X140116119Y-110905095D01*
X140116119Y-110809857D01*
X140163738Y-110714619D01*
X140211357Y-110667000D01*
X140306595Y-110619380D01*
X140544690Y-110619380D01*
X140687547Y-110667000D01*
X141258976Y-111619380D02*
X141163738Y-111571761D01*
X141116119Y-111524142D01*
X141068500Y-111428904D01*
X141068500Y-111143190D01*
X141116119Y-111047952D01*
X141163738Y-111000333D01*
X141258976Y-110952714D01*
X141401833Y-110952714D01*
X141497071Y-111000333D01*
X141544690Y-111047952D01*
X141592309Y-111143190D01*
X141592309Y-111428904D01*
X141544690Y-111524142D01*
X141497071Y-111571761D01*
X141401833Y-111619380D01*
X141258976Y-111619380D01*
X142449452Y-110952714D02*
X142449452Y-111619380D01*
X142020880Y-110952714D02*
X142020880Y-111476523D01*
X142068500Y-111571761D01*
X142163738Y-111619380D01*
X142306595Y-111619380D01*
X142401833Y-111571761D01*
X142449452Y-111524142D01*
X142925642Y-110952714D02*
X142925642Y-111619380D01*
X142925642Y-111047952D02*
X142973261Y-111000333D01*
X143068500Y-110952714D01*
X143211357Y-110952714D01*
X143306595Y-111000333D01*
X143354214Y-111095571D01*
X143354214Y-111619380D01*
X144258976Y-111619380D02*
X144258976Y-110619380D01*
X144258976Y-111571761D02*
X144163738Y-111619380D01*
X143973261Y-111619380D01*
X143878023Y-111571761D01*
X143830404Y-111524142D01*
X143782785Y-111428904D01*
X143782785Y-111143190D01*
X143830404Y-111047952D01*
X143878023Y-111000333D01*
X143973261Y-110952714D01*
X144163738Y-110952714D01*
X144258976Y-111000333D01*
X137306595Y-113369380D02*
X137306595Y-112369380D01*
X137639928Y-113083666D01*
X137973261Y-112369380D01*
X137973261Y-113369380D01*
X138592309Y-113369380D02*
X138497071Y-113321761D01*
X138449452Y-113274142D01*
X138401833Y-113178904D01*
X138401833Y-112893190D01*
X138449452Y-112797952D01*
X138497071Y-112750333D01*
X138592309Y-112702714D01*
X138735166Y-112702714D01*
X138830404Y-112750333D01*
X138878023Y-112797952D01*
X138925642Y-112893190D01*
X138925642Y-113178904D01*
X138878023Y-113274142D01*
X138830404Y-113321761D01*
X138735166Y-113369380D01*
X138592309Y-113369380D01*
X139782785Y-112702714D02*
X139782785Y-113369380D01*
X139354214Y-112702714D02*
X139354214Y-113226523D01*
X139401833Y-113321761D01*
X139497071Y-113369380D01*
X139639928Y-113369380D01*
X139735166Y-113321761D01*
X139782785Y-113274142D01*
X140211357Y-113321761D02*
X140306595Y-113369380D01*
X140497071Y-113369380D01*
X140592309Y-113321761D01*
X140639928Y-113226523D01*
X140639928Y-113178904D01*
X140592309Y-113083666D01*
X140497071Y-113036047D01*
X140354214Y-113036047D01*
X140258976Y-112988428D01*
X140211357Y-112893190D01*
X140211357Y-112845571D01*
X140258976Y-112750333D01*
X140354214Y-112702714D01*
X140497071Y-112702714D01*
X140592309Y-112750333D01*
X141449452Y-113321761D02*
X141354214Y-113369380D01*
X141163738Y-113369380D01*
X141068500Y-113321761D01*
X141020880Y-113226523D01*
X141020880Y-112845571D01*
X141068500Y-112750333D01*
X141163738Y-112702714D01*
X141354214Y-112702714D01*
X141449452Y-112750333D01*
X141497071Y-112845571D01*
X141497071Y-112940809D01*
X141020880Y-113036047D01*
X143258976Y-113369380D02*
X142925642Y-112893190D01*
X142687547Y-113369380D02*
X142687547Y-112369380D01*
X143068500Y-112369380D01*
X143163738Y-112417000D01*
X143211357Y-112464619D01*
X143258976Y-112559857D01*
X143258976Y-112702714D01*
X143211357Y-112797952D01*
X143163738Y-112845571D01*
X143068500Y-112893190D01*
X142687547Y-112893190D01*
X144068500Y-113321761D02*
X143973261Y-113369380D01*
X143782785Y-113369380D01*
X143687547Y-113321761D01*
X143639928Y-113226523D01*
X143639928Y-112845571D01*
X143687547Y-112750333D01*
X143782785Y-112702714D01*
X143973261Y-112702714D01*
X144068500Y-112750333D01*
X144116119Y-112845571D01*
X144116119Y-112940809D01*
X143639928Y-113036047D01*
X144449452Y-112702714D02*
X144687547Y-113369380D01*
X144925642Y-112702714D01*
X145211357Y-112369380D02*
X145830404Y-112369380D01*
X145497071Y-112750333D01*
X145639928Y-112750333D01*
X145735166Y-112797952D01*
X145782785Y-112845571D01*
X145830404Y-112940809D01*
X145830404Y-113178904D01*
X145782785Y-113274142D01*
X145735166Y-113321761D01*
X145639928Y-113369380D01*
X145354214Y-113369380D01*
X145258976Y-113321761D01*
X145211357Y-113274142D01*
X137306595Y-115119380D02*
X137306595Y-114119380D01*
X137687547Y-114119380D01*
X137782785Y-114167000D01*
X137830404Y-114214619D01*
X137878023Y-114309857D01*
X137878023Y-114452714D01*
X137830404Y-114547952D01*
X137782785Y-114595571D01*
X137687547Y-114643190D01*
X137306595Y-114643190D01*
X138258976Y-115071761D02*
X138401833Y-115119380D01*
X138639928Y-115119380D01*
X138735166Y-115071761D01*
X138782785Y-115024142D01*
X138830404Y-114928904D01*
X138830404Y-114833666D01*
X138782785Y-114738428D01*
X138735166Y-114690809D01*
X138639928Y-114643190D01*
X138449452Y-114595571D01*
X138354214Y-114547952D01*
X138306595Y-114500333D01*
X138258976Y-114405095D01*
X138258976Y-114309857D01*
X138306595Y-114214619D01*
X138354214Y-114167000D01*
X138449452Y-114119380D01*
X138687547Y-114119380D01*
X138830404Y-114167000D01*
X139211357Y-114214619D02*
X139258976Y-114167000D01*
X139354214Y-114119380D01*
X139592309Y-114119380D01*
X139687547Y-114167000D01*
X139735166Y-114214619D01*
X139782785Y-114309857D01*
X139782785Y-114405095D01*
X139735166Y-114547952D01*
X139163738Y-115119380D01*
X139782785Y-115119380D01*
X140925642Y-115071761D02*
X141068500Y-115119380D01*
X141306595Y-115119380D01*
X141401833Y-115071761D01*
X141449452Y-115024142D01*
X141497071Y-114928904D01*
X141497071Y-114833666D01*
X141449452Y-114738428D01*
X141401833Y-114690809D01*
X141306595Y-114643190D01*
X141116119Y-114595571D01*
X141020880Y-114547952D01*
X140973261Y-114500333D01*
X140925642Y-114405095D01*
X140925642Y-114309857D01*
X140973261Y-114214619D01*
X141020880Y-114167000D01*
X141116119Y-114119380D01*
X141354214Y-114119380D01*
X141497071Y-114167000D01*
X142306595Y-115071761D02*
X142211357Y-115119380D01*
X142020880Y-115119380D01*
X141925642Y-115071761D01*
X141878023Y-114976523D01*
X141878023Y-114595571D01*
X141925642Y-114500333D01*
X142020880Y-114452714D01*
X142211357Y-114452714D01*
X142306595Y-114500333D01*
X142354214Y-114595571D01*
X142354214Y-114690809D01*
X141878023Y-114786047D01*
X142782785Y-115119380D02*
X142782785Y-114452714D01*
X142782785Y-114643190D02*
X142830404Y-114547952D01*
X142878023Y-114500333D01*
X142973261Y-114452714D01*
X143068500Y-114452714D01*
X143401833Y-115119380D02*
X143401833Y-114452714D01*
X143401833Y-114119380D02*
X143354214Y-114167000D01*
X143401833Y-114214619D01*
X143449452Y-114167000D01*
X143401833Y-114119380D01*
X143401833Y-114214619D01*
X144306595Y-115119380D02*
X144306595Y-114595571D01*
X144258976Y-114500333D01*
X144163738Y-114452714D01*
X143973261Y-114452714D01*
X143878023Y-114500333D01*
X144306595Y-115071761D02*
X144211357Y-115119380D01*
X143973261Y-115119380D01*
X143878023Y-115071761D01*
X143830404Y-114976523D01*
X143830404Y-114881285D01*
X143878023Y-114786047D01*
X143973261Y-114738428D01*
X144211357Y-114738428D01*
X144306595Y-114690809D01*
X144925642Y-115119380D02*
X144830404Y-115071761D01*
X144782785Y-114976523D01*
X144782785Y-114119380D01*
X137258976Y-115964619D02*
X137306595Y-115917000D01*
X137401833Y-115869380D01*
X137639928Y-115869380D01*
X137735166Y-115917000D01*
X137782785Y-115964619D01*
X137830404Y-116059857D01*
X137830404Y-116155095D01*
X137782785Y-116297952D01*
X137211357Y-116869380D01*
X137830404Y-116869380D01*
X138449452Y-115869380D02*
X138544690Y-115869380D01*
X138639928Y-115917000D01*
X138687547Y-115964619D01*
X138735166Y-116059857D01*
X138782785Y-116250333D01*
X138782785Y-116488428D01*
X138735166Y-116678904D01*
X138687547Y-116774142D01*
X138639928Y-116821761D01*
X138544690Y-116869380D01*
X138449452Y-116869380D01*
X138354214Y-116821761D01*
X138306595Y-116774142D01*
X138258976Y-116678904D01*
X138211357Y-116488428D01*
X138211357Y-116250333D01*
X138258976Y-116059857D01*
X138306595Y-115964619D01*
X138354214Y-115917000D01*
X138449452Y-115869380D01*
X139163738Y-115964619D02*
X139211357Y-115917000D01*
X139306595Y-115869380D01*
X139544690Y-115869380D01*
X139639928Y-115917000D01*
X139687547Y-115964619D01*
X139735166Y-116059857D01*
X139735166Y-116155095D01*
X139687547Y-116297952D01*
X139116119Y-116869380D01*
X139735166Y-116869380D01*
X140687547Y-116869380D02*
X140116119Y-116869380D01*
X140401833Y-116869380D02*
X140401833Y-115869380D01*
X140306595Y-116012238D01*
X140211357Y-116107476D01*
X140116119Y-116155095D01*
X141116119Y-116488428D02*
X141878023Y-116488428D01*
X142544690Y-115869380D02*
X142639928Y-115869380D01*
X142735166Y-115917000D01*
X142782785Y-115964619D01*
X142830404Y-116059857D01*
X142878023Y-116250333D01*
X142878023Y-116488428D01*
X142830404Y-116678904D01*
X142782785Y-116774142D01*
X142735166Y-116821761D01*
X142639928Y-116869380D01*
X142544690Y-116869380D01*
X142449452Y-116821761D01*
X142401833Y-116774142D01*
X142354214Y-116678904D01*
X142306595Y-116488428D01*
X142306595Y-116250333D01*
X142354214Y-116059857D01*
X142401833Y-115964619D01*
X142449452Y-115917000D01*
X142544690Y-115869380D01*
X143782785Y-115869380D02*
X143306595Y-115869380D01*
X143258976Y-116345571D01*
X143306595Y-116297952D01*
X143401833Y-116250333D01*
X143639928Y-116250333D01*
X143735166Y-116297952D01*
X143782785Y-116345571D01*
X143830404Y-116440809D01*
X143830404Y-116678904D01*
X143782785Y-116774142D01*
X143735166Y-116821761D01*
X143639928Y-116869380D01*
X143401833Y-116869380D01*
X143306595Y-116821761D01*
X143258976Y-116774142D01*
D12*
%TO.C,J4*%
X145350000Y-107150000D02*
X145350000Y-101950000D01*
X140210000Y-107150000D02*
X145350000Y-107150000D01*
X137610000Y-101950000D02*
X145350000Y-101950000D01*
X140210000Y-107150000D02*
X140210000Y-104550000D01*
X140210000Y-104550000D02*
X137610000Y-104550000D01*
X137610000Y-104550000D02*
X137610000Y-101950000D01*
X138940000Y-107150000D02*
X137610000Y-107150000D01*
X137610000Y-107150000D02*
X137610000Y-105820000D01*
D13*
G36*
X142496000Y-107153500D02*
G01*
X142496000Y-108550500D01*
X140464000Y-108550500D01*
X140464000Y-107153500D01*
X142496000Y-107153500D01*
G37*
X142496000Y-107153500D02*
X142496000Y-108550500D01*
X140464000Y-108550500D01*
X140464000Y-107153500D01*
X142496000Y-107153500D01*
D12*
%TO.C,J5*%
X134930000Y-107130000D02*
X137590000Y-107130000D01*
X134930000Y-104530000D02*
X134930000Y-107130000D01*
X137590000Y-104530000D02*
X137590000Y-107130000D01*
X134930000Y-104530000D02*
X137590000Y-104530000D01*
X134930000Y-103260000D02*
X134930000Y-101930000D01*
X134930000Y-101930000D02*
X136260000Y-101930000D01*
D14*
%TO.C,J1*%
X132476000Y-94234000D02*
X118476000Y-94234000D01*
X118476000Y-107064000D02*
X132476000Y-107064000D01*
X132476000Y-107064000D02*
X132476000Y-102534000D01*
X132476000Y-94234000D02*
X132476000Y-98534000D01*
X118476000Y-94234000D02*
X118476000Y-98534000D01*
X118476000Y-107064000D02*
X118476000Y-102534000D01*
D15*
%TO.C,J3*%
X137426700Y-97312417D02*
X137426700Y-98180421D01*
X145529300Y-96202980D02*
X145529300Y-93713300D01*
X143313940Y-99834699D02*
X143545161Y-99834699D01*
X145529300Y-98180421D02*
X145529300Y-97312417D01*
X139410839Y-99834699D02*
X139642060Y-99834699D01*
X137426700Y-93713300D02*
X137426700Y-96202980D01*
X145529300Y-93713300D02*
X137426700Y-93713300D01*
D12*
%TO.C,J2*%
X115695000Y-130970000D02*
X115695000Y-120490000D01*
X115695000Y-120490000D02*
X146665000Y-120490000D01*
X146665000Y-120490000D02*
X146665000Y-130970000D01*
X136470000Y-119595662D02*
X136970000Y-119595662D01*
X136970000Y-119595662D02*
X136720000Y-120028675D01*
X136720000Y-120028675D02*
X136470000Y-119595662D01*
%TO.C,J4*%
D16*
X136062380Y-104883333D02*
X136776666Y-104883333D01*
X136919523Y-104930952D01*
X137014761Y-105026190D01*
X137062380Y-105169047D01*
X137062380Y-105264285D01*
X136395714Y-103978571D02*
X137062380Y-103978571D01*
X136014761Y-104216666D02*
X136729047Y-104454761D01*
X136729047Y-103835714D01*
%TO.C,C4*%
D17*
X133288571Y-118401666D02*
X133349047Y-118462142D01*
X133409523Y-118643571D01*
X133409523Y-118764523D01*
X133349047Y-118945952D01*
X133228095Y-119066904D01*
X133107142Y-119127380D01*
X132865238Y-119187857D01*
X132683809Y-119187857D01*
X132441904Y-119127380D01*
X132320952Y-119066904D01*
X132200000Y-118945952D01*
X132139523Y-118764523D01*
X132139523Y-118643571D01*
X132200000Y-118462142D01*
X132260476Y-118401666D01*
X132562857Y-117313095D02*
X133409523Y-117313095D01*
X132079047Y-117615476D02*
X132986190Y-117917857D01*
X132986190Y-117131666D01*
%TO.C,C3*%
X127758571Y-118391666D02*
X127819047Y-118452142D01*
X127879523Y-118633571D01*
X127879523Y-118754523D01*
X127819047Y-118935952D01*
X127698095Y-119056904D01*
X127577142Y-119117380D01*
X127335238Y-119177857D01*
X127153809Y-119177857D01*
X126911904Y-119117380D01*
X126790952Y-119056904D01*
X126670000Y-118935952D01*
X126609523Y-118754523D01*
X126609523Y-118633571D01*
X126670000Y-118452142D01*
X126730476Y-118391666D01*
X126609523Y-117968333D02*
X126609523Y-117182142D01*
X127093333Y-117605476D01*
X127093333Y-117424047D01*
X127153809Y-117303095D01*
X127214285Y-117242619D01*
X127335238Y-117182142D01*
X127637619Y-117182142D01*
X127758571Y-117242619D01*
X127819047Y-117303095D01*
X127879523Y-117424047D01*
X127879523Y-117786904D01*
X127819047Y-117907857D01*
X127758571Y-117968333D01*
%TO.C,C2*%
X122248571Y-118391666D02*
X122309047Y-118452142D01*
X122369523Y-118633571D01*
X122369523Y-118754523D01*
X122309047Y-118935952D01*
X122188095Y-119056904D01*
X122067142Y-119117380D01*
X121825238Y-119177857D01*
X121643809Y-119177857D01*
X121401904Y-119117380D01*
X121280952Y-119056904D01*
X121160000Y-118935952D01*
X121099523Y-118754523D01*
X121099523Y-118633571D01*
X121160000Y-118452142D01*
X121220476Y-118391666D01*
X121220476Y-117907857D02*
X121160000Y-117847380D01*
X121099523Y-117726428D01*
X121099523Y-117424047D01*
X121160000Y-117303095D01*
X121220476Y-117242619D01*
X121341428Y-117182142D01*
X121462380Y-117182142D01*
X121643809Y-117242619D01*
X122369523Y-117968333D01*
X122369523Y-117182142D01*
%TO.C,C1*%
X116738571Y-118391666D02*
X116799047Y-118452142D01*
X116859523Y-118633571D01*
X116859523Y-118754523D01*
X116799047Y-118935952D01*
X116678095Y-119056904D01*
X116557142Y-119117380D01*
X116315238Y-119177857D01*
X116133809Y-119177857D01*
X115891904Y-119117380D01*
X115770952Y-119056904D01*
X115650000Y-118935952D01*
X115589523Y-118754523D01*
X115589523Y-118633571D01*
X115650000Y-118452142D01*
X115710476Y-118391666D01*
X116859523Y-117182142D02*
X116859523Y-117907857D01*
X116859523Y-117545000D02*
X115589523Y-117545000D01*
X115770952Y-117665952D01*
X115891904Y-117786904D01*
X115952380Y-117907857D01*
%TO.C,J2*%
D16*
X130846666Y-119002380D02*
X130846666Y-119716666D01*
X130799047Y-119859523D01*
X130703809Y-119954761D01*
X130560952Y-120002380D01*
X130465714Y-120002380D01*
X131275238Y-119097619D02*
X131322857Y-119050000D01*
X131418095Y-119002380D01*
X131656190Y-119002380D01*
X131751428Y-119050000D01*
X131799047Y-119097619D01*
X131846666Y-119192857D01*
X131846666Y-119288095D01*
X131799047Y-119430952D01*
X131227619Y-120002380D01*
X131846666Y-120002380D01*
%TD*%
M02*
