M48
; DRILL file {KiCad (5.1.9)-1} date 04/11/21 16:46:45
; FORMAT={-:-/ absolute / inch / decimal}
; #@! TF.CreationDate,2021-04-11T16:46:45+02:00
; #@! TF.GenerationSoftware,Kicad,Pcbnew,(5.1.9)-1
; #@! TF.FileFunction,Plated,1,2,PTH
FMAT,2
INCH
T1C0.0157
T2C0.0197
T3C0.0382
T4C0.0394
T5C0.0933
T6C0.1260
%
G90
G05
T1
X4.7575Y-4.3443
X4.8087Y-4.3443
X4.8089Y-4.6876
X4.8587Y-4.3445
X4.9091Y-4.3447
X4.9591Y-4.3449
X4.9909Y-4.7276
X5.0091Y-4.3449
X5.0591Y-4.7276
X5.1091Y-4.7287
X5.316Y-4.5392
X5.4193Y-4.1469
X5.4217Y-4.2858
X5.4644Y-4.4762
X5.474Y-4.689
X5.6209Y-4.1469
T3
X4.8287Y-4.1697
X4.8287Y-4.2681
X4.9094Y-4.1697
X5.0118Y-4.1697
X5.0925Y-4.1697
X5.0925Y-4.2681
T4
X4.9465Y-4.8524
X5.001Y-4.9642
X5.0555Y-4.8524
X5.11Y-4.9642
X5.1646Y-4.8524
X5.2191Y-4.9642
X5.2736Y-4.8524
X5.3281Y-4.9642
X5.3827Y-4.8524
X5.578Y-4.3409
X5.578Y-4.4409
X5.578Y-4.5409
X5.678Y-4.3409
X5.678Y-4.4409
X5.678Y-4.5409
T5
X4.6945Y-4.0516
X4.9606Y-4.0197
X5.2268Y-4.0516
T6
X4.6724Y-4.8642
X5.6567Y-4.8642
T2
G00X5.4398Y-3.9309
M15
G01X5.4398Y-3.9505
M16
G05
G00X5.6996Y-3.9309
M15
G01X5.6996Y-3.9505
M16
G05
T0
M30
