%TF.GenerationSoftware,KiCad,Pcbnew,(5.1.9)-1*%
%TF.CreationDate,2021-05-07T20:49:00+02:00*%
%TF.ProjectId,UPL_Mouse,55504c5f-4d6f-4757-9365-2e6b69636164,rev?*%
%TF.SameCoordinates,Original*%
%TF.FileFunction,Soldermask,Top*%
%TF.FilePolarity,Negative*%
%FSLAX46Y46*%
G04 Gerber Fmt 4.6, Leading zero omitted, Abs format (unit mm)*
G04 Created by KiCad (PCBNEW (5.1.9)-1) date 2021-05-07 20:49:00*
%MOMM*%
%LPD*%
G01*
G04 APERTURE LIST*
%ADD10O,1.700000X1.700000*%
%ADD11R,1.700000X1.700000*%
%ADD12R,1.800000X2.600000*%
%ADD13C,1.470000*%
%ADD14C,3.570000*%
%ADD15R,0.406400X1.346200*%
%ADD16R,1.600200X1.397000*%
%ADD17O,0.914400X1.600200*%
%ADD18C,4.000000*%
%ADD19C,1.600000*%
%ADD20R,1.600000X1.600000*%
G04 APERTURE END LIST*
D10*
%TO.C,J4*%
X144020000Y-103280000D03*
X144020000Y-105820000D03*
X141480000Y-103280000D03*
X141480000Y-105820000D03*
X138940000Y-103280000D03*
D11*
X138940000Y-105820000D03*
%TD*%
D12*
%TO.C,C4*%
X134740000Y-117900000D03*
X134740000Y-113400000D03*
%TD*%
%TO.C,C3*%
X129210000Y-117890000D03*
X129210000Y-113390000D03*
%TD*%
%TO.C,C2*%
X123700000Y-117890000D03*
X123700000Y-113390000D03*
%TD*%
%TO.C,C1*%
X118190000Y-117890000D03*
X118190000Y-113390000D03*
%TD*%
D10*
%TO.C,J5*%
X136260000Y-105800000D03*
D11*
X136260000Y-103260000D03*
%TD*%
D13*
%TO.C,J1*%
X124176000Y-103554000D03*
X126776000Y-103554000D03*
X122126000Y-103554000D03*
X128826000Y-103554000D03*
X122126000Y-106054000D03*
X128826000Y-106054000D03*
D14*
X132236000Y-100554000D03*
X125476000Y-99744000D03*
X118716000Y-100554000D03*
%TD*%
D15*
%TO.C,J3*%
X142778000Y-99432699D03*
X142127999Y-99432699D03*
X141478000Y-99432699D03*
X140828001Y-99432699D03*
X140178000Y-99432699D03*
D16*
X144678001Y-99207699D03*
X138277999Y-99207699D03*
D17*
X144777998Y-96757698D03*
X138178002Y-96757698D03*
%TD*%
D18*
%TO.C,J2*%
X143680000Y-123550000D03*
X118680000Y-123550000D03*
D19*
X127025000Y-126090000D03*
X129795000Y-126090000D03*
X132565000Y-126090000D03*
X135335000Y-126090000D03*
X125640000Y-123250000D03*
X128410000Y-123250000D03*
X131180000Y-123250000D03*
X133950000Y-123250000D03*
D20*
X136720000Y-123250000D03*
%TD*%
M02*
