%TF.GenerationSoftware,KiCad,Pcbnew,(5.1.9)-1*%
%TF.CreationDate,2021-05-07T20:48:59+02:00*%
%TF.ProjectId,UPL_Mouse,55504c5f-4d6f-4757-9365-2e6b69636164,rev?*%
%TF.SameCoordinates,Original*%
%TF.FileFunction,Copper,L1,Top*%
%TF.FilePolarity,Positive*%
%FSLAX46Y46*%
G04 Gerber Fmt 4.6, Leading zero omitted, Abs format (unit mm)*
G04 Created by KiCad (PCBNEW (5.1.9)-1) date 2021-05-07 20:48:59*
%MOMM*%
%LPD*%
G01*
G04 APERTURE LIST*
%TA.AperFunction,ComponentPad*%
%ADD10O,1.700000X1.700000*%
%TD*%
%TA.AperFunction,ComponentPad*%
%ADD11R,1.700000X1.700000*%
%TD*%
%TA.AperFunction,SMDPad,CuDef*%
%ADD12R,1.800000X2.600000*%
%TD*%
%TA.AperFunction,ComponentPad*%
%ADD13C,1.470000*%
%TD*%
%TA.AperFunction,ComponentPad*%
%ADD14C,3.570000*%
%TD*%
%TA.AperFunction,SMDPad,CuDef*%
%ADD15R,0.406400X1.346200*%
%TD*%
%TA.AperFunction,SMDPad,CuDef*%
%ADD16R,1.600200X1.397000*%
%TD*%
%TA.AperFunction,ComponentPad*%
%ADD17O,0.914400X1.600200*%
%TD*%
%TA.AperFunction,ComponentPad*%
%ADD18C,4.000000*%
%TD*%
%TA.AperFunction,ComponentPad*%
%ADD19C,1.600000*%
%TD*%
%TA.AperFunction,ComponentPad*%
%ADD20R,1.600000X1.600000*%
%TD*%
%TA.AperFunction,ViaPad*%
%ADD21C,0.800000*%
%TD*%
%TA.AperFunction,Conductor*%
%ADD22C,0.250000*%
%TD*%
%TA.AperFunction,Conductor*%
%ADD23C,1.000000*%
%TD*%
G04 APERTURE END LIST*
D10*
%TO.P,J4,6*%
%TO.N,GND*%
X144020000Y-103280000D03*
%TO.P,J4,5*%
%TO.N,Net-(J4-Pad5)*%
X144020000Y-105820000D03*
%TO.P,J4,4*%
%TO.N,Net-(J4-Pad4)*%
X141480000Y-103280000D03*
%TO.P,J4,3*%
%TO.N,Net-(J4-Pad3)*%
X141480000Y-105820000D03*
%TO.P,J4,2*%
%TO.N,VCC*%
X138940000Y-103280000D03*
D11*
%TO.P,J4,1*%
%TO.N,Net-(J4-Pad1)*%
X138940000Y-105820000D03*
%TD*%
D12*
%TO.P,C4,1*%
%TO.N,GND*%
X134740000Y-117900000D03*
%TO.P,C4,2*%
%TO.N,Net-(C4-Pad2)*%
X134740000Y-113400000D03*
%TD*%
%TO.P,C3,1*%
%TO.N,Net-(C3-Pad1)*%
X129210000Y-117890000D03*
%TO.P,C3,2*%
%TO.N,GND*%
X129210000Y-113390000D03*
%TD*%
%TO.P,C2,1*%
%TO.N,Net-(C2-Pad1)*%
X123700000Y-117890000D03*
%TO.P,C2,2*%
%TO.N,Net-(C2-Pad2)*%
X123700000Y-113390000D03*
%TD*%
%TO.P,C1,1*%
%TO.N,Net-(C1-Pad1)*%
X118190000Y-117890000D03*
%TO.P,C1,2*%
%TO.N,Net-(C1-Pad2)*%
X118190000Y-113390000D03*
%TD*%
D10*
%TO.P,J5,2*%
%TO.N,Net-(J4-Pad3)*%
X136260000Y-105800000D03*
D11*
%TO.P,J5,1*%
%TO.N,Net-(J5-Pad1)*%
X136260000Y-103260000D03*
%TD*%
D13*
%TO.P,J1,1*%
%TO.N,Net-(J1-Pad1)*%
X124176000Y-103554000D03*
%TO.P,J1,2*%
%TO.N,Net-(J1-Pad2)*%
X126776000Y-103554000D03*
%TO.P,J1,3*%
%TO.N,GND*%
X122126000Y-103554000D03*
%TO.P,J1,4*%
%TO.N,VCC*%
X128826000Y-103554000D03*
%TO.P,J1,5*%
%TO.N,Net-(J1-Pad5)*%
X122126000Y-106054000D03*
%TO.P,J1,6*%
%TO.N,Net-(J1-Pad6)*%
X128826000Y-106054000D03*
D14*
%TO.P,J1,7*%
%TO.N,N/C*%
X132236000Y-100554000D03*
%TO.P,J1,8*%
X125476000Y-99744000D03*
%TO.P,J1,9*%
X118716000Y-100554000D03*
%TD*%
D15*
%TO.P,J3,1*%
%TO.N,VCC*%
X142778000Y-99432699D03*
%TO.P,J3,2*%
%TO.N,Net-(J3-Pad2)*%
X142127999Y-99432699D03*
%TO.P,J3,3*%
%TO.N,Net-(J3-Pad3)*%
X141478000Y-99432699D03*
%TO.P,J3,4*%
%TO.N,Net-(J3-Pad4)*%
X140828001Y-99432699D03*
%TO.P,J3,5*%
%TO.N,GND*%
X140178000Y-99432699D03*
D16*
X144678001Y-99207699D03*
X138277999Y-99207699D03*
D17*
X144777998Y-96757698D03*
X138178002Y-96757698D03*
%TD*%
D18*
%TO.P,J2,0*%
%TO.N,N/C*%
X143680000Y-123550000D03*
X118680000Y-123550000D03*
D19*
%TO.P,J2,9*%
%TO.N,Net-(J2-Pad9)*%
X127025000Y-126090000D03*
%TO.P,J2,8*%
%TO.N,Net-(J2-Pad8)*%
X129795000Y-126090000D03*
%TO.P,J2,7*%
%TO.N,Net-(J2-Pad7)*%
X132565000Y-126090000D03*
%TO.P,J2,6*%
%TO.N,Net-(J2-Pad6)*%
X135335000Y-126090000D03*
%TO.P,J2,5*%
%TO.N,GND*%
X125640000Y-123250000D03*
%TO.P,J2,4*%
%TO.N,Net-(J2-Pad4)*%
X128410000Y-123250000D03*
%TO.P,J2,3*%
%TO.N,Net-(J2-Pad3)*%
X131180000Y-123250000D03*
%TO.P,J2,2*%
%TO.N,Net-(J2-Pad2)*%
X133950000Y-123250000D03*
D20*
%TO.P,J2,1*%
%TO.N,Net-(J2-Pad1)*%
X136720000Y-123250000D03*
%TD*%
D21*
%TO.N,Net-(J1-Pad1)*%
X140462002Y-116586000D03*
%TO.N,Net-(J1-Pad5)*%
X140457347Y-115320653D03*
%TO.N,Net-(J2-Pad7)*%
X119990000Y-109440000D03*
%TO.N,Net-(J2-Pad2)*%
X119204113Y-110314302D03*
%TO.N,Net-(C1-Pad1)*%
X119980000Y-118330000D03*
%TO.N,Net-(C1-Pad2)*%
X120030000Y-115770000D03*
%TO.N,Net-(C2-Pad1)*%
X120010000Y-114510000D03*
%TO.N,Net-(C2-Pad2)*%
X120030000Y-113230000D03*
%TO.N,Net-(C3-Pad1)*%
X120020000Y-117050000D03*
%TO.N,Net-(C4-Pad2)*%
X120040000Y-111260000D03*
%TO.N,GND*%
X130120000Y-121330000D03*
X144780000Y-114046000D03*
X143256000Y-108204000D03*
X131318000Y-110236000D03*
%TD*%
D22*
%TO.N,Net-(J1-Pad1)*%
X141478000Y-110490000D02*
X141478000Y-115570002D01*
X141478000Y-115570002D02*
X140462002Y-116586000D01*
X125222000Y-108458000D02*
X139446000Y-108458000D01*
X124176000Y-107412000D02*
X125222000Y-108458000D01*
X139446000Y-108458000D02*
X141478000Y-110490000D01*
X124176000Y-103554000D02*
X124176000Y-107412000D01*
%TO.N,Net-(J1-Pad5)*%
X140457347Y-110485347D02*
X140457347Y-115320653D01*
X139192000Y-109220000D02*
X140457347Y-110485347D01*
X122126000Y-108156000D02*
X123190000Y-109220000D01*
X123190000Y-109220000D02*
X139192000Y-109220000D01*
X122126000Y-106054000D02*
X122126000Y-108156000D01*
%TO.N,Net-(J2-Pad7)*%
X115730000Y-110250000D02*
X116540000Y-109440000D01*
X117430000Y-120800000D02*
X115730000Y-119100000D01*
X119880000Y-120800000D02*
X117430000Y-120800000D01*
X121450000Y-122370000D02*
X119880000Y-120800000D01*
X121450000Y-124710000D02*
X121450000Y-122370000D01*
X115730000Y-119100000D02*
X115730000Y-110250000D01*
X131230000Y-128350000D02*
X125090000Y-128350000D01*
X132565000Y-127015000D02*
X131230000Y-128350000D01*
X116540000Y-109440000D02*
X119990000Y-109440000D01*
X125090000Y-128350000D02*
X121450000Y-124710000D01*
X132565000Y-126090000D02*
X132565000Y-127015000D01*
%TO.N,Net-(J2-Pad2)*%
X132540000Y-124660000D02*
X133950000Y-123250000D01*
X124480000Y-124660000D02*
X132540000Y-124660000D01*
X117406410Y-120140000D02*
X119960000Y-120140000D01*
X119960000Y-120140000D02*
X124480000Y-124660000D01*
X116510000Y-119243590D02*
X117406410Y-120140000D01*
X118555698Y-110314302D02*
X116510000Y-112360000D01*
X116510000Y-112360000D02*
X116510000Y-119243590D01*
X119204113Y-110314302D02*
X118555698Y-110314302D01*
%TO.N,Net-(C1-Pad1)*%
X119540000Y-117890000D02*
X119980000Y-118330000D01*
X118190000Y-117890000D02*
X119540000Y-117890000D01*
%TO.N,Net-(C1-Pad2)*%
X118190000Y-113930000D02*
X120030000Y-115770000D01*
X118190000Y-113390000D02*
X118190000Y-113930000D01*
%TO.N,Net-(C2-Pad1)*%
X123390000Y-117890000D02*
X123700000Y-117890000D01*
X120010000Y-114510000D02*
X123390000Y-117890000D01*
%TO.N,Net-(C2-Pad2)*%
X123540000Y-113230000D02*
X123700000Y-113390000D01*
X120030000Y-113230000D02*
X123540000Y-113230000D01*
%TO.N,Net-(C3-Pad1)*%
X129210000Y-119460000D02*
X129210000Y-117890000D01*
X128480000Y-120190000D02*
X129210000Y-119460000D01*
X122210000Y-120190000D02*
X128480000Y-120190000D01*
X121350000Y-117660000D02*
X121350000Y-119330000D01*
X121350000Y-119330000D02*
X122210000Y-120190000D01*
X120740000Y-117050000D02*
X121350000Y-117660000D01*
X120020000Y-117050000D02*
X120740000Y-117050000D01*
%TO.N,Net-(C4-Pad2)*%
X134740000Y-113400000D02*
X132100000Y-113400000D01*
X129960000Y-111260000D02*
X120040000Y-111260000D01*
X132100000Y-113400000D02*
X129960000Y-111260000D01*
%TO.N,Net-(J4-Pad3)*%
X141480000Y-106932000D02*
X141480000Y-105820000D01*
X140970000Y-107442000D02*
X141480000Y-106932000D01*
X136652000Y-107442000D02*
X140970000Y-107442000D01*
X136260000Y-107050000D02*
X136652000Y-107442000D01*
X136260000Y-105800000D02*
X136260000Y-107050000D01*
%TO.N,GND*%
X144020000Y-99243700D02*
X144690001Y-98573699D01*
X125640000Y-122100000D02*
X125640000Y-123250000D01*
X126410000Y-121330000D02*
X125640000Y-122100000D01*
X134740000Y-120230000D02*
X133640000Y-121330000D01*
X134740000Y-117900000D02*
X134740000Y-120230000D01*
X130120000Y-121330000D02*
X126410000Y-121330000D01*
X133640000Y-121330000D02*
X130120000Y-121330000D01*
X144018000Y-120396000D02*
X146050000Y-118364000D01*
X134574000Y-120396000D02*
X144018000Y-120396000D01*
X133640000Y-121330000D02*
X134574000Y-120396000D01*
X144780000Y-114046000D02*
X146050000Y-114046000D01*
X146050000Y-118364000D02*
X146050000Y-114046000D01*
X143256000Y-108204000D02*
X146050000Y-108204000D01*
X146050000Y-114046000D02*
X146050000Y-108204000D01*
X136398000Y-116242000D02*
X134740000Y-117900000D01*
X136398000Y-111252000D02*
X136398000Y-116242000D01*
X135382000Y-110236000D02*
X136398000Y-111252000D01*
X131318000Y-110236000D02*
X135382000Y-110236000D01*
X133394000Y-117900000D02*
X134740000Y-117900000D01*
X129210000Y-113716000D02*
X133394000Y-117900000D01*
X129210000Y-113390000D02*
X129210000Y-113716000D01*
X144428000Y-103280000D02*
X144020000Y-103280000D01*
X146050000Y-104902000D02*
X144428000Y-103280000D01*
X146050000Y-108204000D02*
X146050000Y-104902000D01*
D23*
X138178002Y-99107702D02*
X138277999Y-99207699D01*
X138178002Y-96757698D02*
X138178002Y-99107702D01*
X144777998Y-99107702D02*
X144678001Y-99207699D01*
X144777998Y-96757698D02*
X144777998Y-99107702D01*
X138178002Y-96757698D02*
X144777998Y-96757698D01*
D22*
X122126000Y-98346000D02*
X122126000Y-103554000D01*
X123698000Y-96774000D02*
X122126000Y-98346000D01*
X134620000Y-96774000D02*
X123698000Y-96774000D01*
X137053699Y-99207699D02*
X134620000Y-96774000D01*
X138277999Y-99207699D02*
X137053699Y-99207699D01*
X138502999Y-99432699D02*
X138277999Y-99207699D01*
X140178000Y-99432699D02*
X138502999Y-99432699D01*
X144020000Y-99865700D02*
X144678001Y-99207699D01*
X144020000Y-103280000D02*
X144020000Y-99865700D01*
%TO.N,VCC*%
X142494000Y-101346000D02*
X142790000Y-101050000D01*
X139700000Y-101346000D02*
X142494000Y-101346000D01*
X138940000Y-102106000D02*
X139700000Y-101346000D01*
X138940000Y-103280000D02*
X138940000Y-102106000D01*
X142778000Y-101038000D02*
X142790000Y-101050000D01*
X142778000Y-99432699D02*
X142778000Y-101038000D01*
%TD*%
M02*
