%TF.GenerationSoftware,KiCad,Pcbnew,(5.1.9)-1*%
%TF.CreationDate,2021-03-28T16:21:23+02:00*%
%TF.ProjectId,UPL_Mouse,55504c5f-4d6f-4757-9365-2e6b69636164,rev?*%
%TF.SameCoordinates,Original*%
%TF.FileFunction,Legend,Top*%
%TF.FilePolarity,Positive*%
%FSLAX46Y46*%
G04 Gerber Fmt 4.6, Leading zero omitted, Abs format (unit mm)*
G04 Created by KiCad (PCBNEW (5.1.9)-1) date 2021-03-28 16:21:23*
%MOMM*%
%LPD*%
G01*
G04 APERTURE LIST*
%ADD10C,0.152400*%
%ADD11C,0.120000*%
%ADD12C,0.150000*%
%ADD13C,0.254000*%
G04 APERTURE END LIST*
D10*
%TO.C,J1*%
X119631500Y-109550400D02*
X133880900Y-109550400D01*
X133880900Y-109550400D02*
X133880900Y-103576555D01*
X133880900Y-96469400D02*
X119631500Y-96469400D01*
X119631500Y-96469400D02*
X119631500Y-100639845D01*
X119631500Y-103576555D02*
X119631500Y-109550400D01*
X133880900Y-100639845D02*
X133880900Y-96469400D01*
%TO.C,J3*%
X145521300Y-97049300D02*
X137418700Y-97049300D01*
X137418700Y-97049300D02*
X137418700Y-99538980D01*
X139402839Y-103170699D02*
X139634060Y-103170699D01*
X145521300Y-101516421D02*
X145521300Y-100648417D01*
X143305940Y-103170699D02*
X143537161Y-103170699D01*
X145521300Y-99538980D02*
X145521300Y-97049300D01*
X137418700Y-100648417D02*
X137418700Y-101516421D01*
D11*
%TO.C,J4*%
X140350000Y-116670000D02*
X145550000Y-116670000D01*
X140350000Y-111530000D02*
X140350000Y-116670000D01*
X145550000Y-108930000D02*
X145550000Y-116670000D01*
X140350000Y-111530000D02*
X142950000Y-111530000D01*
X142950000Y-111530000D02*
X142950000Y-108930000D01*
X142950000Y-108930000D02*
X145550000Y-108930000D01*
X140350000Y-110260000D02*
X140350000Y-108930000D01*
X140350000Y-108930000D02*
X141680000Y-108930000D01*
%TO.C,J2*%
X136720000Y-120028675D02*
X136470000Y-119595662D01*
X136970000Y-119595662D02*
X136720000Y-120028675D01*
X136470000Y-119595662D02*
X136970000Y-119595662D01*
X146665000Y-120490000D02*
X146665000Y-130970000D01*
X115695000Y-120490000D02*
X146665000Y-120490000D01*
X115695000Y-130970000D02*
X115695000Y-120490000D01*
%TO.C,J1*%
D12*
X126422866Y-96048780D02*
X126422866Y-96763066D01*
X126375247Y-96905923D01*
X126280009Y-97001161D01*
X126137152Y-97048780D01*
X126041914Y-97048780D01*
X127422866Y-97048780D02*
X126851438Y-97048780D01*
X127137152Y-97048780D02*
X127137152Y-96048780D01*
X127041914Y-96191638D01*
X126946676Y-96286876D01*
X126851438Y-96334495D01*
X120732390Y-97048780D02*
X120732390Y-96048780D01*
X121113342Y-96048780D01*
X121208580Y-96096400D01*
X121256200Y-96144019D01*
X121303819Y-96239257D01*
X121303819Y-96382114D01*
X121256200Y-96477352D01*
X121208580Y-96524971D01*
X121113342Y-96572590D01*
X120732390Y-96572590D01*
X121684771Y-97001161D02*
X121827628Y-97048780D01*
X122065723Y-97048780D01*
X122160961Y-97001161D01*
X122208580Y-96953542D01*
X122256200Y-96858304D01*
X122256200Y-96763066D01*
X122208580Y-96667828D01*
X122160961Y-96620209D01*
X122065723Y-96572590D01*
X121875247Y-96524971D01*
X121780009Y-96477352D01*
X121732390Y-96429733D01*
X121684771Y-96334495D01*
X121684771Y-96239257D01*
X121732390Y-96144019D01*
X121780009Y-96096400D01*
X121875247Y-96048780D01*
X122113342Y-96048780D01*
X122256200Y-96096400D01*
X122637152Y-96144019D02*
X122684771Y-96096400D01*
X122780009Y-96048780D01*
X123018104Y-96048780D01*
X123113342Y-96096400D01*
X123160961Y-96144019D01*
X123208580Y-96239257D01*
X123208580Y-96334495D01*
X123160961Y-96477352D01*
X122589533Y-97048780D01*
X123208580Y-97048780D01*
X123399057Y-97144019D02*
X124160961Y-97144019D01*
X124875247Y-96048780D02*
X124399057Y-96048780D01*
X124351438Y-96524971D01*
X124399057Y-96477352D01*
X124494295Y-96429733D01*
X124732390Y-96429733D01*
X124827628Y-96477352D01*
X124875247Y-96524971D01*
X124922866Y-96620209D01*
X124922866Y-96858304D01*
X124875247Y-96953542D01*
X124827628Y-97001161D01*
X124732390Y-97048780D01*
X124494295Y-97048780D01*
X124399057Y-97001161D01*
X124351438Y-96953542D01*
X125256200Y-96048780D02*
X125922866Y-96048780D01*
X125494295Y-97048780D01*
X126732390Y-96382114D02*
X126732390Y-97048780D01*
X126494295Y-96001161D02*
X126256200Y-96715447D01*
X126875247Y-96715447D01*
X127303819Y-97048780D02*
X127494295Y-97048780D01*
X127589533Y-97001161D01*
X127637152Y-96953542D01*
X127732390Y-96810685D01*
X127780009Y-96620209D01*
X127780009Y-96239257D01*
X127732390Y-96144019D01*
X127684771Y-96096400D01*
X127589533Y-96048780D01*
X127399057Y-96048780D01*
X127303819Y-96096400D01*
X127256200Y-96144019D01*
X127208580Y-96239257D01*
X127208580Y-96477352D01*
X127256200Y-96572590D01*
X127303819Y-96620209D01*
X127399057Y-96667828D01*
X127589533Y-96667828D01*
X127684771Y-96620209D01*
X127732390Y-96572590D01*
X127780009Y-96477352D01*
X128732390Y-97048780D02*
X128160961Y-97048780D01*
X128446676Y-97048780D02*
X128446676Y-96048780D01*
X128351438Y-96191638D01*
X128256200Y-96286876D01*
X128160961Y-96334495D01*
X129303819Y-96477352D02*
X129208580Y-96429733D01*
X129160961Y-96382114D01*
X129113342Y-96286876D01*
X129113342Y-96239257D01*
X129160961Y-96144019D01*
X129208580Y-96096400D01*
X129303819Y-96048780D01*
X129494295Y-96048780D01*
X129589533Y-96096400D01*
X129637152Y-96144019D01*
X129684771Y-96239257D01*
X129684771Y-96286876D01*
X129637152Y-96382114D01*
X129589533Y-96429733D01*
X129494295Y-96477352D01*
X129303819Y-96477352D01*
X129208580Y-96524971D01*
X129160961Y-96572590D01*
X129113342Y-96667828D01*
X129113342Y-96858304D01*
X129160961Y-96953542D01*
X129208580Y-97001161D01*
X129303819Y-97048780D01*
X129494295Y-97048780D01*
X129589533Y-97001161D01*
X129637152Y-96953542D01*
X129684771Y-96858304D01*
X129684771Y-96667828D01*
X129637152Y-96572590D01*
X129589533Y-96524971D01*
X129494295Y-96477352D01*
X130303819Y-96048780D02*
X130399057Y-96048780D01*
X130494295Y-96096400D01*
X130541914Y-96144019D01*
X130589533Y-96239257D01*
X130637152Y-96429733D01*
X130637152Y-96667828D01*
X130589533Y-96858304D01*
X130541914Y-96953542D01*
X130494295Y-97001161D01*
X130399057Y-97048780D01*
X130303819Y-97048780D01*
X130208580Y-97001161D01*
X130160961Y-96953542D01*
X130113342Y-96858304D01*
X130065723Y-96667828D01*
X130065723Y-96429733D01*
X130113342Y-96239257D01*
X130160961Y-96144019D01*
X130208580Y-96096400D01*
X130303819Y-96048780D01*
X131065723Y-96667828D02*
X131827628Y-96667828D01*
X132827628Y-97048780D02*
X132256200Y-97048780D01*
X132541914Y-97048780D02*
X132541914Y-96048780D01*
X132446676Y-96191638D01*
X132351438Y-96286876D01*
X132256200Y-96334495D01*
X122870000Y-104552380D02*
X122870000Y-104790476D01*
X122631904Y-104695238D02*
X122870000Y-104790476D01*
X123108095Y-104695238D01*
X122727142Y-104980952D02*
X122870000Y-104790476D01*
X123012857Y-104980952D01*
%TO.C,J3*%
X144796666Y-104132380D02*
X144796666Y-104846666D01*
X144749047Y-104989523D01*
X144653809Y-105084761D01*
X144510952Y-105132380D01*
X144415714Y-105132380D01*
X145177619Y-104132380D02*
X145796666Y-104132380D01*
X145463333Y-104513333D01*
X145606190Y-104513333D01*
X145701428Y-104560952D01*
X145749047Y-104608571D01*
X145796666Y-104703809D01*
X145796666Y-104941904D01*
X145749047Y-105037142D01*
X145701428Y-105084761D01*
X145606190Y-105132380D01*
X145320476Y-105132380D01*
X145225238Y-105084761D01*
X145177619Y-105037142D01*
%TO.C,C4*%
D13*
X136908571Y-113261666D02*
X136969047Y-113322142D01*
X137029523Y-113503571D01*
X137029523Y-113624523D01*
X136969047Y-113805952D01*
X136848095Y-113926904D01*
X136727142Y-113987380D01*
X136485238Y-114047857D01*
X136303809Y-114047857D01*
X136061904Y-113987380D01*
X135940952Y-113926904D01*
X135820000Y-113805952D01*
X135759523Y-113624523D01*
X135759523Y-113503571D01*
X135820000Y-113322142D01*
X135880476Y-113261666D01*
X136182857Y-112173095D02*
X137029523Y-112173095D01*
X135699047Y-112475476D02*
X136606190Y-112777857D01*
X136606190Y-111991666D01*
%TO.C,C3*%
X125878571Y-113241666D02*
X125939047Y-113302142D01*
X125999523Y-113483571D01*
X125999523Y-113604523D01*
X125939047Y-113785952D01*
X125818095Y-113906904D01*
X125697142Y-113967380D01*
X125455238Y-114027857D01*
X125273809Y-114027857D01*
X125031904Y-113967380D01*
X124910952Y-113906904D01*
X124790000Y-113785952D01*
X124729523Y-113604523D01*
X124729523Y-113483571D01*
X124790000Y-113302142D01*
X124850476Y-113241666D01*
X124729523Y-112818333D02*
X124729523Y-112032142D01*
X125213333Y-112455476D01*
X125213333Y-112274047D01*
X125273809Y-112153095D01*
X125334285Y-112092619D01*
X125455238Y-112032142D01*
X125757619Y-112032142D01*
X125878571Y-112092619D01*
X125939047Y-112153095D01*
X125999523Y-112274047D01*
X125999523Y-112636904D01*
X125939047Y-112757857D01*
X125878571Y-112818333D01*
%TO.C,C2*%
X131408571Y-113241666D02*
X131469047Y-113302142D01*
X131529523Y-113483571D01*
X131529523Y-113604523D01*
X131469047Y-113785952D01*
X131348095Y-113906904D01*
X131227142Y-113967380D01*
X130985238Y-114027857D01*
X130803809Y-114027857D01*
X130561904Y-113967380D01*
X130440952Y-113906904D01*
X130320000Y-113785952D01*
X130259523Y-113604523D01*
X130259523Y-113483571D01*
X130320000Y-113302142D01*
X130380476Y-113241666D01*
X130380476Y-112757857D02*
X130320000Y-112697380D01*
X130259523Y-112576428D01*
X130259523Y-112274047D01*
X130320000Y-112153095D01*
X130380476Y-112092619D01*
X130501428Y-112032142D01*
X130622380Y-112032142D01*
X130803809Y-112092619D01*
X131529523Y-112818333D01*
X131529523Y-112032142D01*
%TO.C,C1*%
X120368571Y-113241666D02*
X120429047Y-113302142D01*
X120489523Y-113483571D01*
X120489523Y-113604523D01*
X120429047Y-113785952D01*
X120308095Y-113906904D01*
X120187142Y-113967380D01*
X119945238Y-114027857D01*
X119763809Y-114027857D01*
X119521904Y-113967380D01*
X119400952Y-113906904D01*
X119280000Y-113785952D01*
X119219523Y-113604523D01*
X119219523Y-113483571D01*
X119280000Y-113302142D01*
X119340476Y-113241666D01*
X120489523Y-112032142D02*
X120489523Y-112757857D01*
X120489523Y-112395000D02*
X119219523Y-112395000D01*
X119400952Y-112515952D01*
X119521904Y-112636904D01*
X119582380Y-112757857D01*
%TO.C,J4*%
D12*
X142616666Y-107382380D02*
X142616666Y-108096666D01*
X142569047Y-108239523D01*
X142473809Y-108334761D01*
X142330952Y-108382380D01*
X142235714Y-108382380D01*
X143521428Y-107715714D02*
X143521428Y-108382380D01*
X143283333Y-107334761D02*
X143045238Y-108049047D01*
X143664285Y-108049047D01*
%TO.C,J2*%
X130846666Y-119002380D02*
X130846666Y-119716666D01*
X130799047Y-119859523D01*
X130703809Y-119954761D01*
X130560952Y-120002380D01*
X130465714Y-120002380D01*
X131275238Y-119097619D02*
X131322857Y-119050000D01*
X131418095Y-119002380D01*
X131656190Y-119002380D01*
X131751428Y-119050000D01*
X131799047Y-119097619D01*
X131846666Y-119192857D01*
X131846666Y-119288095D01*
X131799047Y-119430952D01*
X131227619Y-120002380D01*
X131846666Y-120002380D01*
%TD*%
M02*
