%TF.GenerationSoftware,KiCad,Pcbnew,(5.1.9)-1*%
%TF.CreationDate,2021-04-11T16:46:44+02:00*%
%TF.ProjectId,UPL_Mouse,55504c5f-4d6f-4757-9365-2e6b69636164,rev?*%
%TF.SameCoordinates,Original*%
%TF.FileFunction,Legend,Bot*%
%TF.FilePolarity,Positive*%
%FSLAX46Y46*%
G04 Gerber Fmt 4.6, Leading zero omitted, Abs format (unit mm)*
G04 Created by KiCad (PCBNEW (5.1.9)-1) date 2021-04-11 16:46:44*
%MOMM*%
%LPD*%
G01*
G04 APERTURE LIST*
%ADD10C,0.250000*%
%ADD11C,0.152400*%
%ADD12C,0.150000*%
G04 APERTURE END LIST*
D10*
X145506071Y-103678571D02*
X145363214Y-103726190D01*
X145315595Y-103773809D01*
X145267976Y-103869047D01*
X145267976Y-104011904D01*
X145315595Y-104107142D01*
X145363214Y-104154761D01*
X145458452Y-104202380D01*
X145839404Y-104202380D01*
X145839404Y-103202380D01*
X145506071Y-103202380D01*
X145410833Y-103250000D01*
X145363214Y-103297619D01*
X145315595Y-103392857D01*
X145315595Y-103488095D01*
X145363214Y-103583333D01*
X145410833Y-103630952D01*
X145506071Y-103678571D01*
X145839404Y-103678571D01*
X144982261Y-103202380D02*
X144648928Y-104202380D01*
X144315595Y-103202380D01*
X143982261Y-104202380D02*
X143982261Y-103202380D01*
X143410833Y-104202380D02*
X143839404Y-103630952D01*
X143410833Y-103202380D02*
X143982261Y-103773809D01*
X143029880Y-104154761D02*
X142887023Y-104202380D01*
X142648928Y-104202380D01*
X142553690Y-104154761D01*
X142506071Y-104107142D01*
X142458452Y-104011904D01*
X142458452Y-103916666D01*
X142506071Y-103821428D01*
X142553690Y-103773809D01*
X142648928Y-103726190D01*
X142839404Y-103678571D01*
X142934642Y-103630952D01*
X142982261Y-103583333D01*
X143029880Y-103488095D01*
X143029880Y-103392857D01*
X142982261Y-103297619D01*
X142934642Y-103250000D01*
X142839404Y-103202380D01*
X142601309Y-103202380D01*
X142458452Y-103250000D01*
X141887023Y-104202380D02*
X141982261Y-104154761D01*
X142029880Y-104107142D01*
X142077500Y-104011904D01*
X142077500Y-103726190D01*
X142029880Y-103630952D01*
X141982261Y-103583333D01*
X141887023Y-103535714D01*
X141744166Y-103535714D01*
X141648928Y-103583333D01*
X141601309Y-103630952D01*
X141553690Y-103726190D01*
X141553690Y-104011904D01*
X141601309Y-104107142D01*
X141648928Y-104154761D01*
X141744166Y-104202380D01*
X141887023Y-104202380D01*
X140696547Y-103535714D02*
X140696547Y-104202380D01*
X141125119Y-103535714D02*
X141125119Y-104059523D01*
X141077500Y-104154761D01*
X140982261Y-104202380D01*
X140839404Y-104202380D01*
X140744166Y-104154761D01*
X140696547Y-104107142D01*
X140220357Y-103535714D02*
X140220357Y-104202380D01*
X140220357Y-103630952D02*
X140172738Y-103583333D01*
X140077500Y-103535714D01*
X139934642Y-103535714D01*
X139839404Y-103583333D01*
X139791785Y-103678571D01*
X139791785Y-104202380D01*
X138887023Y-104202380D02*
X138887023Y-103202380D01*
X138887023Y-104154761D02*
X138982261Y-104202380D01*
X139172738Y-104202380D01*
X139267976Y-104154761D01*
X139315595Y-104107142D01*
X139363214Y-104011904D01*
X139363214Y-103726190D01*
X139315595Y-103630952D01*
X139267976Y-103583333D01*
X139172738Y-103535714D01*
X138982261Y-103535714D01*
X138887023Y-103583333D01*
X145839404Y-105952380D02*
X145839404Y-104952380D01*
X145506071Y-105666666D01*
X145172738Y-104952380D01*
X145172738Y-105952380D01*
X144553690Y-105952380D02*
X144648928Y-105904761D01*
X144696547Y-105857142D01*
X144744166Y-105761904D01*
X144744166Y-105476190D01*
X144696547Y-105380952D01*
X144648928Y-105333333D01*
X144553690Y-105285714D01*
X144410833Y-105285714D01*
X144315595Y-105333333D01*
X144267976Y-105380952D01*
X144220357Y-105476190D01*
X144220357Y-105761904D01*
X144267976Y-105857142D01*
X144315595Y-105904761D01*
X144410833Y-105952380D01*
X144553690Y-105952380D01*
X143363214Y-105285714D02*
X143363214Y-105952380D01*
X143791785Y-105285714D02*
X143791785Y-105809523D01*
X143744166Y-105904761D01*
X143648928Y-105952380D01*
X143506071Y-105952380D01*
X143410833Y-105904761D01*
X143363214Y-105857142D01*
X142934642Y-105904761D02*
X142839404Y-105952380D01*
X142648928Y-105952380D01*
X142553690Y-105904761D01*
X142506071Y-105809523D01*
X142506071Y-105761904D01*
X142553690Y-105666666D01*
X142648928Y-105619047D01*
X142791785Y-105619047D01*
X142887023Y-105571428D01*
X142934642Y-105476190D01*
X142934642Y-105428571D01*
X142887023Y-105333333D01*
X142791785Y-105285714D01*
X142648928Y-105285714D01*
X142553690Y-105333333D01*
X141696547Y-105904761D02*
X141791785Y-105952380D01*
X141982261Y-105952380D01*
X142077500Y-105904761D01*
X142125119Y-105809523D01*
X142125119Y-105428571D01*
X142077500Y-105333333D01*
X141982261Y-105285714D01*
X141791785Y-105285714D01*
X141696547Y-105333333D01*
X141648928Y-105428571D01*
X141648928Y-105523809D01*
X142125119Y-105619047D01*
X140458452Y-105952380D02*
X140458452Y-104952380D01*
X140077500Y-104952380D01*
X139982261Y-105000000D01*
X139934642Y-105047619D01*
X139887023Y-105142857D01*
X139887023Y-105285714D01*
X139934642Y-105380952D01*
X139982261Y-105428571D01*
X140077500Y-105476190D01*
X140458452Y-105476190D01*
X139506071Y-105904761D02*
X139363214Y-105952380D01*
X139125119Y-105952380D01*
X139029880Y-105904761D01*
X138982261Y-105857142D01*
X138934642Y-105761904D01*
X138934642Y-105666666D01*
X138982261Y-105571428D01*
X139029880Y-105523809D01*
X139125119Y-105476190D01*
X139315595Y-105428571D01*
X139410833Y-105380952D01*
X139458452Y-105333333D01*
X139506071Y-105238095D01*
X139506071Y-105142857D01*
X139458452Y-105047619D01*
X139410833Y-105000000D01*
X139315595Y-104952380D01*
X139077500Y-104952380D01*
X138934642Y-105000000D01*
X138553690Y-105047619D02*
X138506071Y-105000000D01*
X138410833Y-104952380D01*
X138172738Y-104952380D01*
X138077500Y-105000000D01*
X138029880Y-105047619D01*
X137982261Y-105142857D01*
X137982261Y-105238095D01*
X138029880Y-105380952D01*
X138601309Y-105952380D01*
X137982261Y-105952380D01*
X136839404Y-105904761D02*
X136696547Y-105952380D01*
X136458452Y-105952380D01*
X136363214Y-105904761D01*
X136315595Y-105857142D01*
X136267976Y-105761904D01*
X136267976Y-105666666D01*
X136315595Y-105571428D01*
X136363214Y-105523809D01*
X136458452Y-105476190D01*
X136648928Y-105428571D01*
X136744166Y-105380952D01*
X136791785Y-105333333D01*
X136839404Y-105238095D01*
X136839404Y-105142857D01*
X136791785Y-105047619D01*
X136744166Y-105000000D01*
X136648928Y-104952380D01*
X136410833Y-104952380D01*
X136267976Y-105000000D01*
X135458452Y-105904761D02*
X135553690Y-105952380D01*
X135744166Y-105952380D01*
X135839404Y-105904761D01*
X135887023Y-105809523D01*
X135887023Y-105428571D01*
X135839404Y-105333333D01*
X135744166Y-105285714D01*
X135553690Y-105285714D01*
X135458452Y-105333333D01*
X135410833Y-105428571D01*
X135410833Y-105523809D01*
X135887023Y-105619047D01*
X134982261Y-105952380D02*
X134982261Y-105285714D01*
X134982261Y-105476190D02*
X134934642Y-105380952D01*
X134887023Y-105333333D01*
X134791785Y-105285714D01*
X134696547Y-105285714D01*
X134363214Y-105952380D02*
X134363214Y-105285714D01*
X134363214Y-104952380D02*
X134410833Y-105000000D01*
X134363214Y-105047619D01*
X134315595Y-105000000D01*
X134363214Y-104952380D01*
X134363214Y-105047619D01*
X133458452Y-105952380D02*
X133458452Y-105428571D01*
X133506071Y-105333333D01*
X133601309Y-105285714D01*
X133791785Y-105285714D01*
X133887023Y-105333333D01*
X133458452Y-105904761D02*
X133553690Y-105952380D01*
X133791785Y-105952380D01*
X133887023Y-105904761D01*
X133934642Y-105809523D01*
X133934642Y-105714285D01*
X133887023Y-105619047D01*
X133791785Y-105571428D01*
X133553690Y-105571428D01*
X133458452Y-105523809D01*
X132839404Y-105952380D02*
X132934642Y-105904761D01*
X132982261Y-105809523D01*
X132982261Y-104952380D01*
X145887023Y-106797619D02*
X145839404Y-106750000D01*
X145744166Y-106702380D01*
X145506071Y-106702380D01*
X145410833Y-106750000D01*
X145363214Y-106797619D01*
X145315595Y-106892857D01*
X145315595Y-106988095D01*
X145363214Y-107130952D01*
X145934642Y-107702380D01*
X145315595Y-107702380D01*
X144696547Y-106702380D02*
X144601309Y-106702380D01*
X144506071Y-106750000D01*
X144458452Y-106797619D01*
X144410833Y-106892857D01*
X144363214Y-107083333D01*
X144363214Y-107321428D01*
X144410833Y-107511904D01*
X144458452Y-107607142D01*
X144506071Y-107654761D01*
X144601309Y-107702380D01*
X144696547Y-107702380D01*
X144791785Y-107654761D01*
X144839404Y-107607142D01*
X144887023Y-107511904D01*
X144934642Y-107321428D01*
X144934642Y-107083333D01*
X144887023Y-106892857D01*
X144839404Y-106797619D01*
X144791785Y-106750000D01*
X144696547Y-106702380D01*
X143982261Y-106797619D02*
X143934642Y-106750000D01*
X143839404Y-106702380D01*
X143601309Y-106702380D01*
X143506071Y-106750000D01*
X143458452Y-106797619D01*
X143410833Y-106892857D01*
X143410833Y-106988095D01*
X143458452Y-107130952D01*
X144029880Y-107702380D01*
X143410833Y-107702380D01*
X142458452Y-107702380D02*
X143029880Y-107702380D01*
X142744166Y-107702380D02*
X142744166Y-106702380D01*
X142839404Y-106845238D01*
X142934642Y-106940476D01*
X143029880Y-106988095D01*
X142029880Y-107321428D02*
X141267976Y-107321428D01*
X140601309Y-106702380D02*
X140506071Y-106702380D01*
X140410833Y-106750000D01*
X140363214Y-106797619D01*
X140315595Y-106892857D01*
X140267976Y-107083333D01*
X140267976Y-107321428D01*
X140315595Y-107511904D01*
X140363214Y-107607142D01*
X140410833Y-107654761D01*
X140506071Y-107702380D01*
X140601309Y-107702380D01*
X140696547Y-107654761D01*
X140744166Y-107607142D01*
X140791785Y-107511904D01*
X140839404Y-107321428D01*
X140839404Y-107083333D01*
X140791785Y-106892857D01*
X140744166Y-106797619D01*
X140696547Y-106750000D01*
X140601309Y-106702380D01*
X139410833Y-107035714D02*
X139410833Y-107702380D01*
X139648928Y-106654761D02*
X139887023Y-107369047D01*
X139267976Y-107369047D01*
X137553690Y-107702380D02*
X137887023Y-107226190D01*
X138125119Y-107702380D02*
X138125119Y-106702380D01*
X137744166Y-106702380D01*
X137648928Y-106750000D01*
X137601309Y-106797619D01*
X137553690Y-106892857D01*
X137553690Y-107035714D01*
X137601309Y-107130952D01*
X137648928Y-107178571D01*
X137744166Y-107226190D01*
X138125119Y-107226190D01*
X136744166Y-107654761D02*
X136839404Y-107702380D01*
X137029880Y-107702380D01*
X137125119Y-107654761D01*
X137172738Y-107559523D01*
X137172738Y-107178571D01*
X137125119Y-107083333D01*
X137029880Y-107035714D01*
X136839404Y-107035714D01*
X136744166Y-107083333D01*
X136696547Y-107178571D01*
X136696547Y-107273809D01*
X137172738Y-107369047D01*
X136363214Y-107035714D02*
X136125119Y-107702380D01*
X135887023Y-107035714D01*
X135553690Y-106797619D02*
X135506071Y-106750000D01*
X135410833Y-106702380D01*
X135172738Y-106702380D01*
X135077500Y-106750000D01*
X135029880Y-106797619D01*
X134982261Y-106892857D01*
X134982261Y-106988095D01*
X135029880Y-107130952D01*
X135601309Y-107702380D01*
X134982261Y-107702380D01*
D11*
%TO.C,U2*%
X138621999Y-111803000D02*
X138621999Y-117457000D01*
X138621999Y-117457000D02*
X138308566Y-117457000D01*
X133018001Y-117457000D02*
X133018001Y-111803000D01*
X133018001Y-111803000D02*
X133331434Y-111803000D01*
X138308566Y-111803000D02*
X138621999Y-111803000D01*
X133331434Y-117457000D02*
X133018001Y-117457000D01*
%TO.C,U1*%
X128304500Y-118408400D02*
X128304500Y-118662400D01*
X128685500Y-118408400D02*
X128304500Y-118408400D01*
X128685500Y-118662400D02*
X128685500Y-118408400D01*
X128304500Y-118662400D02*
X128685500Y-118662400D01*
X120316200Y-115789303D02*
X120316200Y-113610697D01*
X130323800Y-113610697D02*
X130323800Y-115789303D01*
X120316200Y-114395200D02*
G75*
G02*
X120316200Y-115004800I0J-304800D01*
G01*
%TO.C,J1*%
D12*
X126393333Y-95452380D02*
X126393333Y-96166666D01*
X126440952Y-96309523D01*
X126536190Y-96404761D01*
X126679047Y-96452380D01*
X126774285Y-96452380D01*
X125393333Y-96452380D02*
X125964761Y-96452380D01*
X125679047Y-96452380D02*
X125679047Y-95452380D01*
X125774285Y-95595238D01*
X125869523Y-95690476D01*
X125964761Y-95738095D01*
X132243809Y-97812380D02*
X132243809Y-96812380D01*
X131862857Y-96812380D01*
X131767619Y-96860000D01*
X131720000Y-96907619D01*
X131672380Y-97002857D01*
X131672380Y-97145714D01*
X131720000Y-97240952D01*
X131767619Y-97288571D01*
X131862857Y-97336190D01*
X132243809Y-97336190D01*
X131291428Y-97764761D02*
X131148571Y-97812380D01*
X130910476Y-97812380D01*
X130815238Y-97764761D01*
X130767619Y-97717142D01*
X130720000Y-97621904D01*
X130720000Y-97526666D01*
X130767619Y-97431428D01*
X130815238Y-97383809D01*
X130910476Y-97336190D01*
X131100952Y-97288571D01*
X131196190Y-97240952D01*
X131243809Y-97193333D01*
X131291428Y-97098095D01*
X131291428Y-97002857D01*
X131243809Y-96907619D01*
X131196190Y-96860000D01*
X131100952Y-96812380D01*
X130862857Y-96812380D01*
X130720000Y-96860000D01*
X130339047Y-96907619D02*
X130291428Y-96860000D01*
X130196190Y-96812380D01*
X129958095Y-96812380D01*
X129862857Y-96860000D01*
X129815238Y-96907619D01*
X129767619Y-97002857D01*
X129767619Y-97098095D01*
X129815238Y-97240952D01*
X130386666Y-97812380D01*
X129767619Y-97812380D01*
X129577142Y-97907619D02*
X128815238Y-97907619D01*
X128100952Y-96812380D02*
X128577142Y-96812380D01*
X128624761Y-97288571D01*
X128577142Y-97240952D01*
X128481904Y-97193333D01*
X128243809Y-97193333D01*
X128148571Y-97240952D01*
X128100952Y-97288571D01*
X128053333Y-97383809D01*
X128053333Y-97621904D01*
X128100952Y-97717142D01*
X128148571Y-97764761D01*
X128243809Y-97812380D01*
X128481904Y-97812380D01*
X128577142Y-97764761D01*
X128624761Y-97717142D01*
X127720000Y-96812380D02*
X127053333Y-96812380D01*
X127481904Y-97812380D01*
X126243809Y-97145714D02*
X126243809Y-97812380D01*
X126481904Y-96764761D02*
X126720000Y-97479047D01*
X126100952Y-97479047D01*
X125672380Y-97812380D02*
X125481904Y-97812380D01*
X125386666Y-97764761D01*
X125339047Y-97717142D01*
X125243809Y-97574285D01*
X125196190Y-97383809D01*
X125196190Y-97002857D01*
X125243809Y-96907619D01*
X125291428Y-96860000D01*
X125386666Y-96812380D01*
X125577142Y-96812380D01*
X125672380Y-96860000D01*
X125720000Y-96907619D01*
X125767619Y-97002857D01*
X125767619Y-97240952D01*
X125720000Y-97336190D01*
X125672380Y-97383809D01*
X125577142Y-97431428D01*
X125386666Y-97431428D01*
X125291428Y-97383809D01*
X125243809Y-97336190D01*
X125196190Y-97240952D01*
X124243809Y-97812380D02*
X124815238Y-97812380D01*
X124529523Y-97812380D02*
X124529523Y-96812380D01*
X124624761Y-96955238D01*
X124720000Y-97050476D01*
X124815238Y-97098095D01*
X123672380Y-97240952D02*
X123767619Y-97193333D01*
X123815238Y-97145714D01*
X123862857Y-97050476D01*
X123862857Y-97002857D01*
X123815238Y-96907619D01*
X123767619Y-96860000D01*
X123672380Y-96812380D01*
X123481904Y-96812380D01*
X123386666Y-96860000D01*
X123339047Y-96907619D01*
X123291428Y-97002857D01*
X123291428Y-97050476D01*
X123339047Y-97145714D01*
X123386666Y-97193333D01*
X123481904Y-97240952D01*
X123672380Y-97240952D01*
X123767619Y-97288571D01*
X123815238Y-97336190D01*
X123862857Y-97431428D01*
X123862857Y-97621904D01*
X123815238Y-97717142D01*
X123767619Y-97764761D01*
X123672380Y-97812380D01*
X123481904Y-97812380D01*
X123386666Y-97764761D01*
X123339047Y-97717142D01*
X123291428Y-97621904D01*
X123291428Y-97431428D01*
X123339047Y-97336190D01*
X123386666Y-97288571D01*
X123481904Y-97240952D01*
X122672380Y-96812380D02*
X122577142Y-96812380D01*
X122481904Y-96860000D01*
X122434285Y-96907619D01*
X122386666Y-97002857D01*
X122339047Y-97193333D01*
X122339047Y-97431428D01*
X122386666Y-97621904D01*
X122434285Y-97717142D01*
X122481904Y-97764761D01*
X122577142Y-97812380D01*
X122672380Y-97812380D01*
X122767619Y-97764761D01*
X122815238Y-97717142D01*
X122862857Y-97621904D01*
X122910476Y-97431428D01*
X122910476Y-97193333D01*
X122862857Y-97002857D01*
X122815238Y-96907619D01*
X122767619Y-96860000D01*
X122672380Y-96812380D01*
X121910476Y-97431428D02*
X121148571Y-97431428D01*
X120148571Y-97812380D02*
X120720000Y-97812380D01*
X120434285Y-97812380D02*
X120434285Y-96812380D01*
X120529523Y-96955238D01*
X120624761Y-97050476D01*
X120720000Y-97098095D01*
%TO.C,U2*%
X135272380Y-113868095D02*
X136081904Y-113868095D01*
X136177142Y-113915714D01*
X136224761Y-113963333D01*
X136272380Y-114058571D01*
X136272380Y-114249047D01*
X136224761Y-114344285D01*
X136177142Y-114391904D01*
X136081904Y-114439523D01*
X135272380Y-114439523D01*
X135367619Y-114868095D02*
X135320000Y-114915714D01*
X135272380Y-115010952D01*
X135272380Y-115249047D01*
X135320000Y-115344285D01*
X135367619Y-115391904D01*
X135462857Y-115439523D01*
X135558095Y-115439523D01*
X135700952Y-115391904D01*
X136272380Y-114820476D01*
X136272380Y-115439523D01*
X132166666Y-109035714D02*
X132166666Y-109511904D01*
X132452380Y-108940476D02*
X131452380Y-109273809D01*
X132452380Y-109607142D01*
X131452380Y-109797619D02*
X131452380Y-110369047D01*
X132452380Y-110083333D02*
X131452380Y-110083333D01*
X131452380Y-110559523D02*
X131452380Y-111130952D01*
X132452380Y-110845238D02*
X131452380Y-110845238D01*
X132452380Y-111464285D02*
X131452380Y-111464285D01*
X132452380Y-111940476D02*
X131452380Y-111940476D01*
X132452380Y-112511904D01*
X131452380Y-112511904D01*
X131976190Y-113178571D02*
X132452380Y-113178571D01*
X131452380Y-112845238D02*
X131976190Y-113178571D01*
X131452380Y-113511904D01*
X131880952Y-113988095D02*
X131833333Y-113892857D01*
X131785714Y-113845238D01*
X131690476Y-113797619D01*
X131642857Y-113797619D01*
X131547619Y-113845238D01*
X131500000Y-113892857D01*
X131452380Y-113988095D01*
X131452380Y-114178571D01*
X131500000Y-114273809D01*
X131547619Y-114321428D01*
X131642857Y-114369047D01*
X131690476Y-114369047D01*
X131785714Y-114321428D01*
X131833333Y-114273809D01*
X131880952Y-114178571D01*
X131880952Y-113988095D01*
X131928571Y-113892857D01*
X131976190Y-113845238D01*
X132071428Y-113797619D01*
X132261904Y-113797619D01*
X132357142Y-113845238D01*
X132404761Y-113892857D01*
X132452380Y-113988095D01*
X132452380Y-114178571D01*
X132404761Y-114273809D01*
X132357142Y-114321428D01*
X132261904Y-114369047D01*
X132071428Y-114369047D01*
X131976190Y-114321428D01*
X131928571Y-114273809D01*
X131880952Y-114178571D01*
X131452380Y-115273809D02*
X131452380Y-114797619D01*
X131928571Y-114750000D01*
X131880952Y-114797619D01*
X131833333Y-114892857D01*
X131833333Y-115130952D01*
X131880952Y-115226190D01*
X131928571Y-115273809D01*
X132023809Y-115321428D01*
X132261904Y-115321428D01*
X132357142Y-115273809D01*
X132404761Y-115226190D01*
X132452380Y-115130952D01*
X132452380Y-114892857D01*
X132404761Y-114797619D01*
X132357142Y-114750000D01*
X132071428Y-115750000D02*
X132071428Y-116511904D01*
X131547619Y-116940476D02*
X131500000Y-116988095D01*
X131452380Y-117083333D01*
X131452380Y-117321428D01*
X131500000Y-117416666D01*
X131547619Y-117464285D01*
X131642857Y-117511904D01*
X131738095Y-117511904D01*
X131880952Y-117464285D01*
X132452380Y-116892857D01*
X132452380Y-117511904D01*
X131452380Y-118130952D02*
X131452380Y-118226190D01*
X131500000Y-118321428D01*
X131547619Y-118369047D01*
X131642857Y-118416666D01*
X131833333Y-118464285D01*
X132071428Y-118464285D01*
X132261904Y-118416666D01*
X132357142Y-118369047D01*
X132404761Y-118321428D01*
X132452380Y-118226190D01*
X132452380Y-118130952D01*
X132404761Y-118035714D01*
X132357142Y-117988095D01*
X132261904Y-117940476D01*
X132071428Y-117892857D01*
X131833333Y-117892857D01*
X131642857Y-117940476D01*
X131547619Y-117988095D01*
X131500000Y-118035714D01*
X131452380Y-118130952D01*
X132404761Y-118845238D02*
X132452380Y-118988095D01*
X132452380Y-119226190D01*
X132404761Y-119321428D01*
X132357142Y-119369047D01*
X132261904Y-119416666D01*
X132166666Y-119416666D01*
X132071428Y-119369047D01*
X132023809Y-119321428D01*
X131976190Y-119226190D01*
X131928571Y-119035714D01*
X131880952Y-118940476D01*
X131833333Y-118892857D01*
X131738095Y-118845238D01*
X131642857Y-118845238D01*
X131547619Y-118892857D01*
X131500000Y-118940476D01*
X131452380Y-119035714D01*
X131452380Y-119273809D01*
X131500000Y-119416666D01*
X132452380Y-119845238D02*
X131452380Y-119845238D01*
X131928571Y-119845238D02*
X131928571Y-120416666D01*
X132452380Y-120416666D02*
X131452380Y-120416666D01*
X131693580Y-110671001D02*
X131931676Y-110671001D01*
X131836438Y-110432905D02*
X131931676Y-110671001D01*
X131836438Y-110909096D01*
X132122152Y-110528143D02*
X131931676Y-110671001D01*
X132122152Y-110813858D01*
X131693580Y-110671001D02*
X131931676Y-110671001D01*
X131836438Y-110432905D02*
X131931676Y-110671001D01*
X131836438Y-110909096D01*
X132122152Y-110528143D02*
X131931676Y-110671001D01*
X132122152Y-110813858D01*
%TO.C,U1*%
X124772380Y-113938095D02*
X125581904Y-113938095D01*
X125677142Y-113985714D01*
X125724761Y-114033333D01*
X125772380Y-114128571D01*
X125772380Y-114319047D01*
X125724761Y-114414285D01*
X125677142Y-114461904D01*
X125581904Y-114509523D01*
X124772380Y-114509523D01*
X125772380Y-115509523D02*
X125772380Y-114938095D01*
X125772380Y-115223809D02*
X124772380Y-115223809D01*
X124915238Y-115128571D01*
X125010476Y-115033333D01*
X125058095Y-114938095D01*
X119602380Y-111003333D02*
X118602380Y-111003333D01*
X119316666Y-111336666D01*
X118602380Y-111670000D01*
X119602380Y-111670000D01*
X119316666Y-112098571D02*
X119316666Y-112574761D01*
X119602380Y-112003333D02*
X118602380Y-112336666D01*
X119602380Y-112670000D01*
X118602380Y-112908095D02*
X119602380Y-113574761D01*
X118602380Y-113574761D02*
X119602380Y-112908095D01*
X118697619Y-113908095D02*
X118650000Y-113955714D01*
X118602380Y-114050952D01*
X118602380Y-114289047D01*
X118650000Y-114384285D01*
X118697619Y-114431904D01*
X118792857Y-114479523D01*
X118888095Y-114479523D01*
X119030952Y-114431904D01*
X119602380Y-113860476D01*
X119602380Y-114479523D01*
X118602380Y-114812857D02*
X118602380Y-115431904D01*
X118983333Y-115098571D01*
X118983333Y-115241428D01*
X119030952Y-115336666D01*
X119078571Y-115384285D01*
X119173809Y-115431904D01*
X119411904Y-115431904D01*
X119507142Y-115384285D01*
X119554761Y-115336666D01*
X119602380Y-115241428D01*
X119602380Y-114955714D01*
X119554761Y-114860476D01*
X119507142Y-114812857D01*
X118697619Y-115812857D02*
X118650000Y-115860476D01*
X118602380Y-115955714D01*
X118602380Y-116193809D01*
X118650000Y-116289047D01*
X118697619Y-116336666D01*
X118792857Y-116384285D01*
X118888095Y-116384285D01*
X119030952Y-116336666D01*
X119602380Y-115765238D01*
X119602380Y-116384285D01*
X119602380Y-116812857D02*
X118602380Y-116812857D01*
X118602380Y-117050952D01*
X118650000Y-117193809D01*
X118745238Y-117289047D01*
X118840476Y-117336666D01*
X119030952Y-117384285D01*
X119173809Y-117384285D01*
X119364285Y-117336666D01*
X119459523Y-117289047D01*
X119554761Y-117193809D01*
X119602380Y-117050952D01*
X119602380Y-116812857D01*
X119602380Y-118384285D02*
X119126190Y-118050952D01*
X119602380Y-117812857D02*
X118602380Y-117812857D01*
X118602380Y-118193809D01*
X118650000Y-118289047D01*
X118697619Y-118336666D01*
X118792857Y-118384285D01*
X118935714Y-118384285D01*
X119030952Y-118336666D01*
X119078571Y-118289047D01*
X119126190Y-118193809D01*
X119126190Y-117812857D01*
%TD*%
M02*
