%TF.GenerationSoftware,KiCad,Pcbnew,(5.1.9)-1*%
%TF.CreationDate,2021-04-11T16:46:43+02:00*%
%TF.ProjectId,UPL_Mouse,55504c5f-4d6f-4757-9365-2e6b69636164,rev?*%
%TF.SameCoordinates,Original*%
%TF.FileFunction,Copper,L1,Top*%
%TF.FilePolarity,Positive*%
%FSLAX46Y46*%
G04 Gerber Fmt 4.6, Leading zero omitted, Abs format (unit mm)*
G04 Created by KiCad (PCBNEW (5.1.9)-1) date 2021-04-11 16:46:43*
%MOMM*%
%LPD*%
G01*
G04 APERTURE LIST*
%TA.AperFunction,ComponentPad*%
%ADD10O,1.700000X1.700000*%
%TD*%
%TA.AperFunction,ComponentPad*%
%ADD11R,1.700000X1.700000*%
%TD*%
%TA.AperFunction,ComponentPad*%
%ADD12C,1.470000*%
%TD*%
%TA.AperFunction,ComponentPad*%
%ADD13C,3.570000*%
%TD*%
%TA.AperFunction,SMDPad,CuDef*%
%ADD14R,1.800000X2.600000*%
%TD*%
%TA.AperFunction,SMDPad,CuDef*%
%ADD15R,0.406400X1.346200*%
%TD*%
%TA.AperFunction,SMDPad,CuDef*%
%ADD16R,1.600200X1.397000*%
%TD*%
%TA.AperFunction,ComponentPad*%
%ADD17O,0.914400X1.600200*%
%TD*%
%TA.AperFunction,ComponentPad*%
%ADD18C,4.000000*%
%TD*%
%TA.AperFunction,ComponentPad*%
%ADD19C,1.600000*%
%TD*%
%TA.AperFunction,ComponentPad*%
%ADD20R,1.600000X1.600000*%
%TD*%
%TA.AperFunction,ViaPad*%
%ADD21C,0.800000*%
%TD*%
%TA.AperFunction,Conductor*%
%ADD22C,0.250000*%
%TD*%
%TA.AperFunction,Conductor*%
%ADD23C,1.000000*%
%TD*%
G04 APERTURE END LIST*
D10*
%TO.P,J4,6*%
%TO.N,GND*%
X144220000Y-115340000D03*
%TO.P,J4,5*%
%TO.N,Net-(J4-Pad5)*%
X141680000Y-115340000D03*
%TO.P,J4,4*%
%TO.N,Net-(J4-Pad4)*%
X144220000Y-112800000D03*
%TO.P,J4,3*%
%TO.N,Net-(J4-Pad3)*%
X141680000Y-112800000D03*
%TO.P,J4,2*%
%TO.N,VCC*%
X144220000Y-110260000D03*
D11*
%TO.P,J4,1*%
%TO.N,Net-(J4-Pad1)*%
X141680000Y-110260000D03*
%TD*%
D12*
%TO.P,J1,1*%
%TO.N,Net-(J1-Pad1)*%
X124700000Y-105910000D03*
%TO.P,J1,2*%
%TO.N,Net-(J1-Pad2)*%
X127300000Y-105910000D03*
%TO.P,J1,3*%
%TO.N,GND*%
X122650000Y-105910000D03*
%TO.P,J1,4*%
%TO.N,VCC*%
X129350000Y-105910000D03*
%TO.P,J1,5*%
%TO.N,Net-(J1-Pad5)*%
X122650000Y-108410000D03*
%TO.P,J1,6*%
%TO.N,Net-(J1-Pad6)*%
X129350000Y-108410000D03*
D13*
%TO.P,J1,7*%
%TO.N,N/C*%
X132760000Y-102910000D03*
%TO.P,J1,8*%
X126000000Y-102100000D03*
%TO.P,J1,9*%
X119240000Y-102910000D03*
%TD*%
D14*
%TO.P,C4,1*%
%TO.N,GND*%
X134550000Y-113340000D03*
%TO.P,C4,2*%
%TO.N,Net-(C4-Pad2)*%
X134550000Y-117840000D03*
%TD*%
%TO.P,C3,1*%
%TO.N,Net-(C3-Pad1)*%
X123520000Y-113320000D03*
%TO.P,C3,2*%
%TO.N,GND*%
X123520000Y-117820000D03*
%TD*%
%TO.P,C2,1*%
%TO.N,Net-(C2-Pad1)*%
X129050000Y-113320000D03*
%TO.P,C2,2*%
%TO.N,Net-(C2-Pad2)*%
X129050000Y-117820000D03*
%TD*%
%TO.P,C1,1*%
%TO.N,Net-(C1-Pad1)*%
X118010000Y-113320000D03*
%TO.P,C1,2*%
%TO.N,Net-(C1-Pad2)*%
X118010000Y-117820000D03*
%TD*%
D15*
%TO.P,J3,1*%
%TO.N,VCC*%
X142770000Y-102768699D03*
%TO.P,J3,2*%
%TO.N,Net-(J3-Pad2)*%
X142119999Y-102768699D03*
%TO.P,J3,3*%
%TO.N,Net-(J3-Pad3)*%
X141470000Y-102768699D03*
%TO.P,J3,4*%
%TO.N,Net-(J3-Pad4)*%
X140820001Y-102768699D03*
%TO.P,J3,5*%
%TO.N,GND*%
X140170000Y-102768699D03*
D16*
X144670001Y-102543699D03*
X138269999Y-102543699D03*
D17*
X144769998Y-100093698D03*
X138170002Y-100093698D03*
%TD*%
D18*
%TO.P,J2,0*%
%TO.N,N/C*%
X143680000Y-123550000D03*
X118680000Y-123550000D03*
D19*
%TO.P,J2,9*%
%TO.N,Net-(J2-Pad9)*%
X127025000Y-126090000D03*
%TO.P,J2,8*%
%TO.N,Net-(J2-Pad8)*%
X129795000Y-126090000D03*
%TO.P,J2,7*%
%TO.N,Net-(J2-Pad7)*%
X132565000Y-126090000D03*
%TO.P,J2,6*%
%TO.N,Net-(J2-Pad6)*%
X135335000Y-126090000D03*
%TO.P,J2,5*%
%TO.N,GND*%
X125640000Y-123250000D03*
%TO.P,J2,4*%
%TO.N,Net-(J2-Pad4)*%
X128410000Y-123250000D03*
%TO.P,J2,3*%
%TO.N,Net-(J2-Pad3)*%
X131180000Y-123250000D03*
%TO.P,J2,2*%
%TO.N,Net-(J2-Pad2)*%
X133950000Y-123250000D03*
D20*
%TO.P,J2,1*%
%TO.N,Net-(J2-Pad1)*%
X136720000Y-123250000D03*
%TD*%
D21*
%TO.N,Net-(C1-Pad1)*%
X120840000Y-110345010D03*
%TO.N,Net-(C1-Pad2)*%
X123410000Y-110350000D03*
%TO.N,Net-(C2-Pad1)*%
X124690000Y-110355010D03*
%TO.N,Net-(C2-Pad2)*%
X125960000Y-110360000D03*
%TO.N,Net-(C3-Pad1)*%
X122140000Y-110345010D03*
%TO.N,Net-(C4-Pad2)*%
X127230000Y-110360000D03*
%TO.N,Net-(J4-Pad4)*%
X129770000Y-120110000D03*
X139040000Y-119100000D03*
%TO.N,Net-(J4-Pad3)*%
X126770000Y-120080000D03*
X138794699Y-113694699D03*
%TO.N,Net-(J4-Pad1)*%
X128500000Y-120080000D03*
X135026795Y-115296795D03*
%TO.N,GND*%
X122145000Y-119065000D03*
X137710000Y-108860000D03*
%TO.N,VCC*%
X142770000Y-105330000D03*
X137650000Y-105330000D03*
%TD*%
D22*
%TO.N,Net-(C1-Pad1)*%
X118010000Y-110870000D02*
X118534990Y-110345010D01*
X118534990Y-110345010D02*
X120840000Y-110345010D01*
X118010000Y-113320000D02*
X118010000Y-110870000D01*
%TO.N,Net-(C1-Pad2)*%
X116770000Y-117820000D02*
X118010000Y-117820000D01*
X116180000Y-117230000D02*
X116770000Y-117820000D01*
X116180000Y-110960000D02*
X116180000Y-117230000D01*
X117520000Y-109620000D02*
X116180000Y-110960000D01*
X122680000Y-109620000D02*
X117520000Y-109620000D01*
X123410000Y-110350000D02*
X122680000Y-109620000D01*
%TO.N,Net-(C2-Pad1)*%
X125415010Y-109630000D02*
X124690000Y-110355010D01*
X127850000Y-109630000D02*
X125415010Y-109630000D01*
X129050000Y-110830000D02*
X127850000Y-109630000D01*
X129050000Y-113320000D02*
X129050000Y-110830000D01*
%TO.N,Net-(C2-Pad2)*%
X125960000Y-114730000D02*
X125960000Y-110360000D01*
X129050000Y-117820000D02*
X125960000Y-114730000D01*
%TO.N,Net-(C3-Pad1)*%
X123520000Y-113320000D02*
X123520000Y-111725010D01*
X123520000Y-111725010D02*
X122140000Y-110345010D01*
%TO.N,Net-(C4-Pad2)*%
X127230000Y-114970000D02*
X127230000Y-110360000D01*
X128110000Y-115850000D02*
X127230000Y-114970000D01*
X134090000Y-115850000D02*
X128110000Y-115850000D01*
X134550000Y-116310000D02*
X134090000Y-115850000D01*
X134550000Y-117840000D02*
X134550000Y-116310000D01*
%TO.N,Net-(J4-Pad4)*%
X139040000Y-119770000D02*
X139040000Y-119100000D01*
X138700000Y-120110000D02*
X139040000Y-119770000D01*
X129770000Y-120110000D02*
X138700000Y-120110000D01*
%TO.N,Net-(J4-Pad3)*%
X140330000Y-115600000D02*
X138794699Y-114064699D01*
X140330000Y-120480000D02*
X140330000Y-115600000D01*
X139270000Y-121540000D02*
X140330000Y-120480000D01*
X127280000Y-121540000D02*
X139270000Y-121540000D01*
X126770000Y-121030000D02*
X127280000Y-121540000D01*
X138794699Y-114064699D02*
X138794699Y-113694699D01*
X126770000Y-120080000D02*
X126770000Y-121030000D01*
%TO.N,Net-(J4-Pad1)*%
X139116795Y-115296795D02*
X135026795Y-115296795D01*
X139765001Y-115945001D02*
X139116795Y-115296795D01*
X139765001Y-120204999D02*
X139765001Y-115945001D01*
X139040000Y-120930000D02*
X139765001Y-120204999D01*
X129120000Y-120930000D02*
X139040000Y-120930000D01*
X128500000Y-120310000D02*
X129120000Y-120930000D01*
X128500000Y-120080000D02*
X128500000Y-120310000D01*
%TO.N,GND*%
X123390000Y-117820000D02*
X122145000Y-119065000D01*
X123520000Y-117820000D02*
X123390000Y-117820000D01*
X135360000Y-108860000D02*
X137710000Y-108860000D01*
X134550000Y-109670000D02*
X135360000Y-108860000D01*
X134550000Y-113340000D02*
X134550000Y-109670000D01*
X139570000Y-108860000D02*
X137710000Y-108860000D01*
X140170000Y-108260000D02*
X139570000Y-108860000D01*
X140170000Y-102768699D02*
X140170000Y-108260000D01*
D23*
X138269999Y-100193695D02*
X138170002Y-100093698D01*
X138269999Y-102543699D02*
X138269999Y-100193695D01*
X144670001Y-100193695D02*
X144769998Y-100093698D01*
X144670001Y-102543699D02*
X144670001Y-100193695D01*
D22*
X138494999Y-102768699D02*
X138269999Y-102543699D01*
X141921901Y-100093698D02*
X144769998Y-100093698D01*
X140170000Y-102768699D02*
X140170000Y-101845599D01*
X140170000Y-100100000D02*
X140176302Y-100093698D01*
X140170000Y-102768699D02*
X140170000Y-100100000D01*
X140176302Y-100093698D02*
X141921901Y-100093698D01*
X138170002Y-100093698D02*
X140176302Y-100093698D01*
%TO.N,VCC*%
X142770000Y-106160000D02*
X144190000Y-107580000D01*
X144190000Y-110230000D02*
X144220000Y-110260000D01*
X144190000Y-107580000D02*
X144190000Y-110230000D01*
X142770000Y-105330000D02*
X142770000Y-106160000D01*
X142770000Y-102768699D02*
X142770000Y-105330000D01*
X137120000Y-105860000D02*
X137650000Y-105330000D01*
X129330000Y-105860000D02*
X137120000Y-105860000D01*
X129140000Y-106050000D02*
X129330000Y-105860000D01*
%TD*%
M02*
