%TF.GenerationSoftware,KiCad,Pcbnew,(5.1.9)-1*%
%TF.CreationDate,2021-04-11T16:46:44+02:00*%
%TF.ProjectId,UPL_Mouse,55504c5f-4d6f-4757-9365-2e6b69636164,rev?*%
%TF.SameCoordinates,Original*%
%TF.FileFunction,Legend,Top*%
%TF.FilePolarity,Positive*%
%FSLAX46Y46*%
G04 Gerber Fmt 4.6, Leading zero omitted, Abs format (unit mm)*
G04 Created by KiCad (PCBNEW (5.1.9)-1) date 2021-04-11 16:46:44*
%MOMM*%
%LPD*%
G01*
G04 APERTURE LIST*
%ADD10C,0.125000*%
%ADD11C,0.120000*%
%ADD12C,0.100000*%
%ADD13C,0.200000*%
%ADD14C,0.152400*%
%ADD15C,0.150000*%
%ADD16C,0.254000*%
G04 APERTURE END LIST*
D10*
X146060000Y-115710952D02*
X146036190Y-115758571D01*
X146036190Y-115830000D01*
X146060000Y-115901428D01*
X146107619Y-115949047D01*
X146155238Y-115972857D01*
X146250476Y-115996666D01*
X146321904Y-115996666D01*
X146417142Y-115972857D01*
X146464761Y-115949047D01*
X146512380Y-115901428D01*
X146536190Y-115830000D01*
X146536190Y-115782380D01*
X146512380Y-115710952D01*
X146488571Y-115687142D01*
X146321904Y-115687142D01*
X146321904Y-115782380D01*
X146536190Y-115472857D02*
X146036190Y-115472857D01*
X146536190Y-115187142D01*
X146036190Y-115187142D01*
X146536190Y-114949047D02*
X146036190Y-114949047D01*
X146036190Y-114830000D01*
X146060000Y-114758571D01*
X146107619Y-114710952D01*
X146155238Y-114687142D01*
X146250476Y-114663333D01*
X146321904Y-114663333D01*
X146417142Y-114687142D01*
X146464761Y-114710952D01*
X146512380Y-114758571D01*
X146536190Y-114830000D01*
X146536190Y-114949047D01*
X146495714Y-110942857D02*
X146495714Y-110561904D01*
X146686190Y-110752380D02*
X146305238Y-110752380D01*
X146186190Y-110085714D02*
X146186190Y-110323809D01*
X146424285Y-110347619D01*
X146400476Y-110323809D01*
X146376666Y-110276190D01*
X146376666Y-110157142D01*
X146400476Y-110109523D01*
X146424285Y-110085714D01*
X146471904Y-110061904D01*
X146590952Y-110061904D01*
X146638571Y-110085714D01*
X146662380Y-110109523D01*
X146686190Y-110157142D01*
X146686190Y-110276190D01*
X146662380Y-110323809D01*
X146638571Y-110347619D01*
X146186190Y-109919047D02*
X146686190Y-109752380D01*
X146186190Y-109585714D01*
D11*
%TO.C,J4*%
X140350000Y-116670000D02*
X145550000Y-116670000D01*
X140350000Y-111530000D02*
X140350000Y-116670000D01*
X145550000Y-108930000D02*
X145550000Y-116670000D01*
X140350000Y-111530000D02*
X142950000Y-111530000D01*
X142950000Y-111530000D02*
X142950000Y-108930000D01*
X142950000Y-108930000D02*
X145550000Y-108930000D01*
X140350000Y-110260000D02*
X140350000Y-108930000D01*
X140350000Y-108930000D02*
X141680000Y-108930000D01*
D12*
G36*
X140410000Y-113816000D02*
G01*
X139140000Y-113816000D01*
X139140000Y-111911000D01*
X140410000Y-111911000D01*
X140410000Y-113816000D01*
G37*
X140410000Y-113816000D02*
X139140000Y-113816000D01*
X139140000Y-111911000D01*
X140410000Y-111911000D01*
X140410000Y-113816000D01*
D13*
%TO.C,J1*%
X119000000Y-109420000D02*
X119000000Y-104890000D01*
X119000000Y-96590000D02*
X119000000Y-100890000D01*
X133000000Y-96590000D02*
X133000000Y-100890000D01*
X133000000Y-109420000D02*
X133000000Y-104890000D01*
X119000000Y-109420000D02*
X133000000Y-109420000D01*
X133000000Y-96590000D02*
X119000000Y-96590000D01*
D14*
%TO.C,J3*%
X145521300Y-97049300D02*
X137418700Y-97049300D01*
X137418700Y-97049300D02*
X137418700Y-99538980D01*
X139402839Y-103170699D02*
X139634060Y-103170699D01*
X145521300Y-101516421D02*
X145521300Y-100648417D01*
X143305940Y-103170699D02*
X143537161Y-103170699D01*
X145521300Y-99538980D02*
X145521300Y-97049300D01*
X137418700Y-100648417D02*
X137418700Y-101516421D01*
D11*
%TO.C,J2*%
X136720000Y-120028675D02*
X136470000Y-119595662D01*
X136970000Y-119595662D02*
X136720000Y-120028675D01*
X136470000Y-119595662D02*
X136970000Y-119595662D01*
X146665000Y-120490000D02*
X146665000Y-130970000D01*
X115695000Y-120490000D02*
X146665000Y-120490000D01*
X115695000Y-130970000D02*
X115695000Y-120490000D01*
%TO.C,J4*%
D15*
X142616666Y-107382380D02*
X142616666Y-108096666D01*
X142569047Y-108239523D01*
X142473809Y-108334761D01*
X142330952Y-108382380D01*
X142235714Y-108382380D01*
X143521428Y-107715714D02*
X143521428Y-108382380D01*
X143283333Y-107334761D02*
X143045238Y-108049047D01*
X143664285Y-108049047D01*
%TO.C,C4*%
D16*
X136908571Y-113261666D02*
X136969047Y-113322142D01*
X137029523Y-113503571D01*
X137029523Y-113624523D01*
X136969047Y-113805952D01*
X136848095Y-113926904D01*
X136727142Y-113987380D01*
X136485238Y-114047857D01*
X136303809Y-114047857D01*
X136061904Y-113987380D01*
X135940952Y-113926904D01*
X135820000Y-113805952D01*
X135759523Y-113624523D01*
X135759523Y-113503571D01*
X135820000Y-113322142D01*
X135880476Y-113261666D01*
X136182857Y-112173095D02*
X137029523Y-112173095D01*
X135699047Y-112475476D02*
X136606190Y-112777857D01*
X136606190Y-111991666D01*
%TO.C,C3*%
X125878571Y-113241666D02*
X125939047Y-113302142D01*
X125999523Y-113483571D01*
X125999523Y-113604523D01*
X125939047Y-113785952D01*
X125818095Y-113906904D01*
X125697142Y-113967380D01*
X125455238Y-114027857D01*
X125273809Y-114027857D01*
X125031904Y-113967380D01*
X124910952Y-113906904D01*
X124790000Y-113785952D01*
X124729523Y-113604523D01*
X124729523Y-113483571D01*
X124790000Y-113302142D01*
X124850476Y-113241666D01*
X124729523Y-112818333D02*
X124729523Y-112032142D01*
X125213333Y-112455476D01*
X125213333Y-112274047D01*
X125273809Y-112153095D01*
X125334285Y-112092619D01*
X125455238Y-112032142D01*
X125757619Y-112032142D01*
X125878571Y-112092619D01*
X125939047Y-112153095D01*
X125999523Y-112274047D01*
X125999523Y-112636904D01*
X125939047Y-112757857D01*
X125878571Y-112818333D01*
%TO.C,C2*%
X131408571Y-113241666D02*
X131469047Y-113302142D01*
X131529523Y-113483571D01*
X131529523Y-113604523D01*
X131469047Y-113785952D01*
X131348095Y-113906904D01*
X131227142Y-113967380D01*
X130985238Y-114027857D01*
X130803809Y-114027857D01*
X130561904Y-113967380D01*
X130440952Y-113906904D01*
X130320000Y-113785952D01*
X130259523Y-113604523D01*
X130259523Y-113483571D01*
X130320000Y-113302142D01*
X130380476Y-113241666D01*
X130380476Y-112757857D02*
X130320000Y-112697380D01*
X130259523Y-112576428D01*
X130259523Y-112274047D01*
X130320000Y-112153095D01*
X130380476Y-112092619D01*
X130501428Y-112032142D01*
X130622380Y-112032142D01*
X130803809Y-112092619D01*
X131529523Y-112818333D01*
X131529523Y-112032142D01*
%TO.C,C1*%
X120368571Y-113241666D02*
X120429047Y-113302142D01*
X120489523Y-113483571D01*
X120489523Y-113604523D01*
X120429047Y-113785952D01*
X120308095Y-113906904D01*
X120187142Y-113967380D01*
X119945238Y-114027857D01*
X119763809Y-114027857D01*
X119521904Y-113967380D01*
X119400952Y-113906904D01*
X119280000Y-113785952D01*
X119219523Y-113604523D01*
X119219523Y-113483571D01*
X119280000Y-113302142D01*
X119340476Y-113241666D01*
X120489523Y-112032142D02*
X120489523Y-112757857D01*
X120489523Y-112395000D02*
X119219523Y-112395000D01*
X119400952Y-112515952D01*
X119521904Y-112636904D01*
X119582380Y-112757857D01*
%TO.C,J3*%
D15*
X144796666Y-104132380D02*
X144796666Y-104846666D01*
X144749047Y-104989523D01*
X144653809Y-105084761D01*
X144510952Y-105132380D01*
X144415714Y-105132380D01*
X145177619Y-104132380D02*
X145796666Y-104132380D01*
X145463333Y-104513333D01*
X145606190Y-104513333D01*
X145701428Y-104560952D01*
X145749047Y-104608571D01*
X145796666Y-104703809D01*
X145796666Y-104941904D01*
X145749047Y-105037142D01*
X145701428Y-105084761D01*
X145606190Y-105132380D01*
X145320476Y-105132380D01*
X145225238Y-105084761D01*
X145177619Y-105037142D01*
%TO.C,J2*%
X130846666Y-119002380D02*
X130846666Y-119716666D01*
X130799047Y-119859523D01*
X130703809Y-119954761D01*
X130560952Y-120002380D01*
X130465714Y-120002380D01*
X131275238Y-119097619D02*
X131322857Y-119050000D01*
X131418095Y-119002380D01*
X131656190Y-119002380D01*
X131751428Y-119050000D01*
X131799047Y-119097619D01*
X131846666Y-119192857D01*
X131846666Y-119288095D01*
X131799047Y-119430952D01*
X131227619Y-120002380D01*
X131846666Y-120002380D01*
%TD*%
M02*
