%TF.GenerationSoftware,KiCad,Pcbnew,(5.1.9)-1*%
%TF.CreationDate,2021-04-11T16:46:43+02:00*%
%TF.ProjectId,UPL_Mouse,55504c5f-4d6f-4757-9365-2e6b69636164,rev?*%
%TF.SameCoordinates,Original*%
%TF.FileFunction,Copper,L2,Bot*%
%TF.FilePolarity,Positive*%
%FSLAX46Y46*%
G04 Gerber Fmt 4.6, Leading zero omitted, Abs format (unit mm)*
G04 Created by KiCad (PCBNEW (5.1.9)-1) date 2021-04-11 16:46:43*
%MOMM*%
%LPD*%
G01*
G04 APERTURE LIST*
%TA.AperFunction,ComponentPad*%
%ADD10O,1.700000X1.700000*%
%TD*%
%TA.AperFunction,ComponentPad*%
%ADD11R,1.700000X1.700000*%
%TD*%
%TA.AperFunction,ComponentPad*%
%ADD12C,1.470000*%
%TD*%
%TA.AperFunction,ComponentPad*%
%ADD13C,3.570000*%
%TD*%
%TA.AperFunction,ComponentPad*%
%ADD14O,0.914400X1.600200*%
%TD*%
%TA.AperFunction,SMDPad,CuDef*%
%ADD15R,0.530800X1.561200*%
%TD*%
%TA.AperFunction,SMDPad,CuDef*%
%ADD16R,0.558800X2.184400*%
%TD*%
%TA.AperFunction,ComponentPad*%
%ADD17C,4.000000*%
%TD*%
%TA.AperFunction,ComponentPad*%
%ADD18C,1.600000*%
%TD*%
%TA.AperFunction,ComponentPad*%
%ADD19R,1.600000X1.600000*%
%TD*%
%TA.AperFunction,ViaPad*%
%ADD20C,0.800000*%
%TD*%
%TA.AperFunction,Conductor*%
%ADD21C,0.250000*%
%TD*%
G04 APERTURE END LIST*
D10*
%TO.P,J4,6*%
%TO.N,GND*%
X144220000Y-115340000D03*
%TO.P,J4,5*%
%TO.N,Net-(J4-Pad5)*%
X141680000Y-115340000D03*
%TO.P,J4,4*%
%TO.N,Net-(J4-Pad4)*%
X144220000Y-112800000D03*
%TO.P,J4,3*%
%TO.N,Net-(J4-Pad3)*%
X141680000Y-112800000D03*
%TO.P,J4,2*%
%TO.N,VCC*%
X144220000Y-110260000D03*
D11*
%TO.P,J4,1*%
%TO.N,Net-(J4-Pad1)*%
X141680000Y-110260000D03*
%TD*%
D12*
%TO.P,J1,1*%
%TO.N,Net-(J1-Pad1)*%
X124700000Y-105910000D03*
%TO.P,J1,2*%
%TO.N,Net-(J1-Pad2)*%
X127300000Y-105910000D03*
%TO.P,J1,3*%
%TO.N,GND*%
X122650000Y-105910000D03*
%TO.P,J1,4*%
%TO.N,VCC*%
X129350000Y-105910000D03*
%TO.P,J1,5*%
%TO.N,Net-(J1-Pad5)*%
X122650000Y-108410000D03*
%TO.P,J1,6*%
%TO.N,Net-(J1-Pad6)*%
X129350000Y-108410000D03*
D13*
%TO.P,J1,7*%
%TO.N,N/C*%
X132760000Y-102910000D03*
%TO.P,J1,8*%
X126000000Y-102100000D03*
%TO.P,J1,9*%
X119240000Y-102910000D03*
%TD*%
D14*
%TO.P,J3,5*%
%TO.N,GND*%
X144769998Y-100093698D03*
X138170002Y-100093698D03*
%TD*%
D15*
%TO.P,U2,1*%
%TO.N,Net-(J4-Pad5)*%
X133915000Y-110925001D03*
%TO.P,U2,2*%
%TO.N,Net-(J1-Pad5)*%
X135185000Y-110925001D03*
%TO.P,U2,3*%
%TO.N,Net-(J1-Pad1)*%
X136455000Y-110925001D03*
%TO.P,U2,4*%
%TO.N,GND*%
X137725000Y-110925001D03*
%TO.P,U2,5*%
%TO.N,Net-(J4-Pad4)*%
X137725000Y-118334999D03*
%TO.P,U2,6*%
%TO.N,Net-(J4-Pad1)*%
X136455000Y-118334999D03*
%TO.P,U2,7*%
%TO.N,Net-(J4-Pad3)*%
X135185000Y-118334999D03*
%TO.P,U2,8*%
%TO.N,VCC*%
X133915000Y-118334999D03*
%TD*%
D16*
%TO.P,U1,1*%
%TO.N,Net-(C1-Pad1)*%
X120875000Y-112337800D03*
%TO.P,U1,2*%
%TO.N,Net-(C3-Pad1)*%
X122145000Y-112337800D03*
%TO.P,U1,3*%
%TO.N,Net-(C1-Pad2)*%
X123415000Y-112337800D03*
%TO.P,U1,4*%
%TO.N,Net-(C2-Pad1)*%
X124685000Y-112337800D03*
%TO.P,U1,5*%
%TO.N,Net-(C2-Pad2)*%
X125955000Y-112337800D03*
%TO.P,U1,6*%
%TO.N,Net-(C4-Pad2)*%
X127225000Y-112337800D03*
%TO.P,U1,7*%
%TO.N,Net-(J2-Pad2)*%
X128495000Y-112337800D03*
%TO.P,U1,8*%
%TO.N,Net-(J2-Pad7)*%
X129765000Y-112337800D03*
%TO.P,U1,9*%
%TO.N,Net-(J4-Pad4)*%
X129765000Y-117062200D03*
%TO.P,U1,10*%
%TO.N,Net-(J4-Pad1)*%
X128495000Y-117062200D03*
%TO.P,U1,11*%
%TO.N,Net-(U1-Pad11)*%
X127225000Y-117062200D03*
%TO.P,U1,12*%
%TO.N,Net-(J4-Pad3)*%
X125955000Y-117062200D03*
%TO.P,U1,13*%
%TO.N,Net-(J2-Pad3)*%
X124685000Y-117062200D03*
%TO.P,U1,14*%
%TO.N,Net-(U1-Pad14)*%
X123415000Y-117062200D03*
%TO.P,U1,15*%
%TO.N,GND*%
X122145000Y-117062200D03*
%TO.P,U1,16*%
%TO.N,VCC*%
X120875000Y-117062200D03*
%TD*%
D17*
%TO.P,J2,0*%
%TO.N,N/C*%
X143680000Y-123550000D03*
X118680000Y-123550000D03*
D18*
%TO.P,J2,9*%
%TO.N,Net-(J2-Pad9)*%
X127025000Y-126090000D03*
%TO.P,J2,8*%
%TO.N,Net-(J2-Pad8)*%
X129795000Y-126090000D03*
%TO.P,J2,7*%
%TO.N,Net-(J2-Pad7)*%
X132565000Y-126090000D03*
%TO.P,J2,6*%
%TO.N,Net-(J2-Pad6)*%
X135335000Y-126090000D03*
%TO.P,J2,5*%
%TO.N,GND*%
X125640000Y-123250000D03*
%TO.P,J2,4*%
%TO.N,Net-(J2-Pad4)*%
X128410000Y-123250000D03*
%TO.P,J2,3*%
%TO.N,Net-(J2-Pad3)*%
X131180000Y-123250000D03*
%TO.P,J2,2*%
%TO.N,Net-(J2-Pad2)*%
X133950000Y-123250000D03*
D19*
%TO.P,J2,1*%
%TO.N,Net-(J2-Pad1)*%
X136720000Y-123250000D03*
%TD*%
D20*
%TO.N,Net-(C1-Pad1)*%
X120840000Y-110345010D03*
%TO.N,Net-(C1-Pad2)*%
X123410000Y-110350000D03*
%TO.N,Net-(C2-Pad1)*%
X124690000Y-110355010D03*
%TO.N,Net-(C2-Pad2)*%
X125960000Y-110360000D03*
%TO.N,Net-(C3-Pad1)*%
X122140000Y-110345010D03*
%TO.N,Net-(C4-Pad2)*%
X127230000Y-110360000D03*
%TO.N,Net-(J4-Pad4)*%
X129770000Y-120110000D03*
X139040000Y-119100000D03*
%TO.N,Net-(J4-Pad3)*%
X126770000Y-120080000D03*
X138794699Y-113694699D03*
%TO.N,Net-(J4-Pad1)*%
X128500000Y-120080000D03*
X135026795Y-115296795D03*
%TO.N,GND*%
X122145000Y-119065000D03*
X137710000Y-108860000D03*
%TO.N,VCC*%
X142770000Y-105330000D03*
X137650000Y-105330000D03*
%TD*%
D21*
%TO.N,Net-(J1-Pad1)*%
X136455000Y-110255000D02*
X136455000Y-110925001D01*
X133370000Y-107170000D02*
X136455000Y-110255000D01*
X124950000Y-107170000D02*
X133370000Y-107170000D01*
X124490000Y-106710000D02*
X124950000Y-107170000D01*
X124490000Y-106050000D02*
X124490000Y-106710000D01*
%TO.N,Net-(J1-Pad5)*%
X135185000Y-110065000D02*
X135185000Y-110925001D01*
X134750000Y-109630000D02*
X135185000Y-110065000D01*
X124210000Y-109630000D02*
X134750000Y-109630000D01*
X123130000Y-108550000D02*
X124210000Y-109630000D01*
X122440000Y-108550000D02*
X123130000Y-108550000D01*
%TO.N,Net-(J2-Pad7)*%
X129977800Y-112337800D02*
X129765000Y-112337800D01*
X130790000Y-113150000D02*
X129977800Y-112337800D01*
X130790000Y-119600000D02*
X130790000Y-113150000D01*
X132550000Y-121360000D02*
X130790000Y-119600000D01*
X132550000Y-126075000D02*
X132550000Y-121360000D01*
X132565000Y-126090000D02*
X132550000Y-126075000D01*
%TO.N,Net-(J2-Pad3)*%
X131180000Y-123250000D02*
X129450000Y-121520000D01*
X129450000Y-121520000D02*
X126200000Y-121520000D01*
X124685000Y-120005000D02*
X124685000Y-117062200D01*
X126200000Y-121520000D02*
X124685000Y-120005000D01*
%TO.N,Net-(J2-Pad2)*%
X128510000Y-112322800D02*
X128495000Y-112337800D01*
X128510000Y-110750000D02*
X128510000Y-112322800D01*
X128860000Y-110400000D02*
X128510000Y-110750000D01*
X130800000Y-110400000D02*
X128860000Y-110400000D01*
X131340000Y-110940000D02*
X130800000Y-110400000D01*
X133950000Y-121810000D02*
X131340000Y-119200000D01*
X131340000Y-119200000D02*
X131340000Y-110940000D01*
X133950000Y-123250000D02*
X133950000Y-121810000D01*
%TO.N,Net-(C1-Pad1)*%
X120875000Y-112337800D02*
X120875000Y-110380010D01*
X120875000Y-110380010D02*
X120840000Y-110345010D01*
%TO.N,Net-(C1-Pad2)*%
X123410000Y-112332800D02*
X123415000Y-112337800D01*
X123410000Y-110350000D02*
X123410000Y-112332800D01*
%TO.N,Net-(C2-Pad1)*%
X124685000Y-110360010D02*
X124690000Y-110355010D01*
X124685000Y-112337800D02*
X124685000Y-110360010D01*
%TO.N,Net-(C2-Pad2)*%
X125960000Y-112332800D02*
X125955000Y-112337800D01*
X125960000Y-110360000D02*
X125960000Y-112332800D01*
%TO.N,Net-(C3-Pad1)*%
X122145000Y-110350010D02*
X122140000Y-110345010D01*
X122145000Y-112337800D02*
X122145000Y-110350010D01*
%TO.N,Net-(C4-Pad2)*%
X127230000Y-112332800D02*
X127225000Y-112337800D01*
X127230000Y-110360000D02*
X127230000Y-112332800D01*
%TO.N,Net-(J4-Pad5)*%
X131970000Y-119010000D02*
X131970000Y-112870001D01*
X131970000Y-112870001D02*
X133915000Y-110925001D01*
X140460000Y-120330000D02*
X133290000Y-120330000D01*
X133290000Y-120330000D02*
X131970000Y-119010000D01*
X141680000Y-119110000D02*
X140460000Y-120330000D01*
X141680000Y-115340000D02*
X141680000Y-119110000D01*
%TO.N,Net-(J4-Pad4)*%
X137725000Y-116135000D02*
X137725000Y-118334999D01*
X139780000Y-114080000D02*
X137725000Y-116135000D01*
X142940000Y-114080000D02*
X139780000Y-114080000D01*
X144220000Y-112800000D02*
X142940000Y-114080000D01*
X129765000Y-120105000D02*
X129770000Y-120110000D01*
X129765000Y-117062200D02*
X129765000Y-120105000D01*
X137725000Y-118925000D02*
X137725000Y-118334999D01*
X137900000Y-119100000D02*
X137725000Y-118925000D01*
X139040000Y-119100000D02*
X137900000Y-119100000D01*
%TO.N,Net-(J4-Pad3)*%
X139689399Y-112800000D02*
X141680000Y-112800000D01*
X135185000Y-118334999D02*
X135185000Y-117304399D01*
X125955000Y-119265000D02*
X126770000Y-120080000D01*
X125955000Y-117062200D02*
X125955000Y-119265000D01*
X138794699Y-113694699D02*
X139689399Y-112800000D01*
X135185000Y-117304399D02*
X138794699Y-113694699D01*
%TO.N,Net-(J4-Pad1)*%
X141680000Y-110260000D02*
X140063590Y-110260000D01*
X128495000Y-120075000D02*
X128500000Y-120080000D01*
X128495000Y-117062200D02*
X128495000Y-120075000D01*
X140063590Y-110260000D02*
X135026795Y-115296795D01*
X136160599Y-119660000D02*
X136455000Y-119365599D01*
X133608999Y-119660000D02*
X136160599Y-119660000D01*
X133020000Y-119071001D02*
X133608999Y-119660000D01*
X133020000Y-117303590D02*
X133020000Y-119071001D01*
X136455000Y-119365599D02*
X136455000Y-118334999D01*
X135026795Y-115296795D02*
X133020000Y-117303590D01*
%TO.N,GND*%
X125640000Y-123250000D02*
X122145000Y-119755000D01*
X122145000Y-119065000D02*
X122145000Y-117062200D01*
X122145000Y-119755000D02*
X122145000Y-119065000D01*
X137710000Y-110910001D02*
X137725000Y-110925001D01*
X137710000Y-108860000D02*
X137710000Y-110910001D01*
X144220000Y-119390000D02*
X144220000Y-115340000D01*
X143290000Y-120320000D02*
X144220000Y-119390000D01*
X141770000Y-120320000D02*
X143290000Y-120320000D01*
X139520000Y-122570000D02*
X141770000Y-120320000D01*
X137200000Y-128300000D02*
X139520000Y-125980000D01*
X126300000Y-128300000D02*
X137200000Y-128300000D01*
X125570000Y-127570000D02*
X126300000Y-128300000D01*
X125570000Y-123320000D02*
X125570000Y-127570000D01*
X139520000Y-125980000D02*
X139520000Y-122570000D01*
X125640000Y-123250000D02*
X125570000Y-123320000D01*
X142590000Y-108860000D02*
X137710000Y-108860000D01*
X146010000Y-109570000D02*
X145300000Y-108860000D01*
X146010000Y-114780000D02*
X146010000Y-109570000D01*
X145450000Y-115340000D02*
X146010000Y-114780000D01*
X145300000Y-108860000D02*
X142590000Y-108860000D01*
X144220000Y-115340000D02*
X145450000Y-115340000D01*
X137690000Y-108860000D02*
X137710000Y-108860000D01*
X134690000Y-105860000D02*
X137690000Y-108860000D01*
X131760000Y-105860000D02*
X134690000Y-105860000D01*
X130510000Y-104610000D02*
X131760000Y-105860000D01*
X122440000Y-105410000D02*
X123240000Y-104610000D01*
X123240000Y-104610000D02*
X130510000Y-104610000D01*
X122440000Y-106050000D02*
X122440000Y-105410000D01*
%TO.N,VCC*%
X119290000Y-115477200D02*
X120875000Y-117062200D01*
X142930000Y-111550000D02*
X144220000Y-110260000D01*
X139850000Y-111550000D02*
X142930000Y-111550000D01*
X133915000Y-117485000D02*
X139850000Y-111550000D01*
X133915000Y-118334999D02*
X133915000Y-117485000D01*
X137650000Y-105330000D02*
X142770000Y-105330000D01*
%TD*%
M02*
