%TF.GenerationSoftware,KiCad,Pcbnew,(5.1.9)-1*%
%TF.CreationDate,2021-04-11T16:46:44+02:00*%
%TF.ProjectId,UPL_Mouse,55504c5f-4d6f-4757-9365-2e6b69636164,rev?*%
%TF.SameCoordinates,Original*%
%TF.FileFunction,Soldermask,Bot*%
%TF.FilePolarity,Negative*%
%FSLAX46Y46*%
G04 Gerber Fmt 4.6, Leading zero omitted, Abs format (unit mm)*
G04 Created by KiCad (PCBNEW (5.1.9)-1) date 2021-04-11 16:46:44*
%MOMM*%
%LPD*%
G01*
G04 APERTURE LIST*
%ADD10O,1.700000X1.700000*%
%ADD11R,1.700000X1.700000*%
%ADD12C,1.470000*%
%ADD13C,3.570000*%
%ADD14O,0.914400X1.600200*%
%ADD15R,0.530800X1.561200*%
%ADD16R,0.558800X2.184400*%
%ADD17C,4.000000*%
%ADD18C,1.600000*%
%ADD19R,1.600000X1.600000*%
G04 APERTURE END LIST*
D10*
%TO.C,J4*%
X144220000Y-115340000D03*
X141680000Y-115340000D03*
X144220000Y-112800000D03*
X141680000Y-112800000D03*
X144220000Y-110260000D03*
D11*
X141680000Y-110260000D03*
%TD*%
D12*
%TO.C,J1*%
X124700000Y-105910000D03*
X127300000Y-105910000D03*
X122650000Y-105910000D03*
X129350000Y-105910000D03*
X122650000Y-108410000D03*
X129350000Y-108410000D03*
D13*
X132760000Y-102910000D03*
X126000000Y-102100000D03*
X119240000Y-102910000D03*
%TD*%
D14*
%TO.C,J3*%
X144769998Y-100093698D03*
X138170002Y-100093698D03*
%TD*%
D15*
%TO.C,U2*%
X133915000Y-110925001D03*
X135185000Y-110925001D03*
X136455000Y-110925001D03*
X137725000Y-110925001D03*
X137725000Y-118334999D03*
X136455000Y-118334999D03*
X135185000Y-118334999D03*
X133915000Y-118334999D03*
%TD*%
D16*
%TO.C,U1*%
X120875000Y-112337800D03*
X122145000Y-112337800D03*
X123415000Y-112337800D03*
X124685000Y-112337800D03*
X125955000Y-112337800D03*
X127225000Y-112337800D03*
X128495000Y-112337800D03*
X129765000Y-112337800D03*
X129765000Y-117062200D03*
X128495000Y-117062200D03*
X127225000Y-117062200D03*
X125955000Y-117062200D03*
X124685000Y-117062200D03*
X123415000Y-117062200D03*
X122145000Y-117062200D03*
X120875000Y-117062200D03*
%TD*%
D17*
%TO.C,J2*%
X143680000Y-123550000D03*
X118680000Y-123550000D03*
D18*
X127025000Y-126090000D03*
X129795000Y-126090000D03*
X132565000Y-126090000D03*
X135335000Y-126090000D03*
X125640000Y-123250000D03*
X128410000Y-123250000D03*
X131180000Y-123250000D03*
X133950000Y-123250000D03*
D19*
X136720000Y-123250000D03*
%TD*%
M02*
